<!--?xml version="1.0" standalone="no"?-->
              <svg id="sw-js-blob-svg" viewBox="0 0 100 100" xmlns="http://www.w3.org/2000/svg" version="1.1">
                    <defs> 
                        <linearGradient id="sw-gradient" x1="0" x2="1" y1="1" y2="0">
                            <stop id="stop1" stop-color="rgba(248, 117, 55, 1)" offset="0%"></stop>
                            <stop id="stop2" stop-color="rgba(251, 168, 31, 1)" offset="100%"></stop>
                        </linearGradient>
                    </defs>
                <path fill="url(#sw-gradient)" d="M4,-9.6C4.5,-5.8,4,-3.7,3.4,-2.3C2.8,-1,2.1,-0.4,7.7,5.2C13.2,10.7,24.9,21.2,24.9,21.9C24.8,22.5,13,13.3,5.8,11.6C-1.3,10,-3.8,15.8,-4.7,15.7C-5.6,15.6,-4.8,9.5,-6.7,6.3C-8.6,3.1,-13.3,2.9,-19.8,-1C-26.3,-4.8,-34.6,-12.2,-33,-14.8C-31.4,-17.3,-19.7,-15,-12.6,-15.8C-5.4,-16.6,-2.7,-20.6,-0.5,-19.8C1.7,-19,3.4,-13.4,4,-9.6Z" width="100%" height="100%" transform="translate(50 50)" stroke-width="0" style="transition: all 0.3s ease 0s;"></path>
              </svg>