<!--?xml version="1.0" standalone="no"?-->
              <svg id="sw-js-blob-svg" viewBox="0 0 100 100" xmlns="http://www.w3.org/2000/svg" version="1.1">
                    <defs> 
                        <linearGradient id="sw-gradient" x1="0" x2="1" y1="1" y2="0">
                            <stop id="stop1" stop-color="rgba(248, 117, 55, 1)" offset="0%"></stop>
                            <stop id="stop2" stop-color="rgba(251, 168, 31, 1)" offset="100%"></stop>
                        </linearGradient>
                    </defs>
                <path fill="url(#sw-gradient)" d="M14.3,-26.5C19.5,-21.8,25.4,-19.9,25.5,-16C25.6,-12.1,19.9,-6,15.6,-2.5C11.3,1.1,8.5,2.2,7.6,4.7C6.6,7.2,7.6,11,6.7,17.8C5.8,24.6,2.9,34.3,0.4,33.6C-2.1,32.9,-4.2,21.9,-8.8,17.3C-13.5,12.6,-20.7,14.4,-27.4,12.5C-34,10.7,-40.2,5.4,-41.4,-0.7C-42.6,-6.7,-38.7,-13.4,-31.5,-14.4C-24.4,-15.4,-13.9,-10.6,-8.1,-15C-2.3,-19.4,-1.1,-32.8,1.7,-35.8C4.6,-38.7,9.1,-31.2,14.3,-26.5Z" width="100%" height="100%" transform="translate(50 50)" stroke-width="0" style="transition: all 0.3s ease 0s;"></path>
              </svg>