<?xml version="1.0" encoding="UTF-8"?>
<svg version="1.1" viewBox="0 0 1600 1288" width="1280" height="1280" xmlns="http://www.w3.org/2000/svg">
<path transform="translate(0)" d="m0 0h1600v1288h-1600v-1288z" fill="#FCFDFF"/>
<path transform="translate(709 119)" d="m0 0c3.47 0.0783 6.95 0.145 10.4 0.211 34.8 0.693 34.8 0.693 38.4 2.49 1.73 0.209 3.46 0.368 5.19 0.5 1.03 0.0825 2.05 0.165 3.11 0.25 2.18 0.167 4.35 0.334 6.53 0.5 1.03 0.0825 2.05 0.165 3.11 0.25 0.946 0.0722 1.89 0.144 2.87 0.219 2.19 0.281 2.19 0.281 3.19 1.28 2.3 0.418 4.61 0.781 6.92 1.12 1.43 0.215 2.86 0.431 4.3 0.646 2.26 0.335 4.52 0.669 6.79 1 2.18 0.321 4.36 0.649 6.54 0.978 0.671 0.0959 1.34 0.192 2.03 0.291 3.74 0.568 6.95 1.48 10.4 2.96 2.65 0.547 5.27 1.05 7.94 1.5 4.84 0.823 9.42 1.88 14.1 3.5 1.43 0.337 2.87 0.652 4.31 0.938 3.77 0.81 7.33 1.88 11 3.14 4.23 1.43 8.51 2.73 12.8 4.03 4.72 1.46 9.33 3.12 13.9 4.89 1.31 0.49 2.62 0.978 3.93 1.46 10.3 3.83 20.5 7.74 30.4 12.3 2.29 1.05 4.58 2.07 6.89 3.09 18.9 8.44 18.9 8.44 27.6 13.9 2.29 1.43 2.29 1.43 5.62 2.77 3.9 1.67 7.35 3.75 11 5.96 2.34 1.42 4.7 2.74 7.11 4.04 3.83 2.11 7.45 4.45 11.1 6.91 2.53 1.7 5.1 3.34 7.68 4.97 4.99 3.16 9.91 6.41 14.8 9.7 1.83 1.23 3.68 2.45 5.52 3.66 0.795 0.521 1.59 1.04 2.41 1.58 0.692 0.45 1.38 0.9 2.1 1.36 1.84 1.32 1.84 1.32 3.2 2.7 2.39 2.38 5.08 4.35 7.76 6.38 1.17 0.894 2.34 1.79 3.51 2.68 2.01 1.54 4.03 3.07 6.05 4.6 4.07 3.12 7.74 6.29 11.3 9.96 5.95 5.55 12.1 10.8 18.5 15.9 3.67 3.09 6.9 6.35 9.92 10.1 1.83 2.25 3.76 4.09 6 5.94 4.66 3.87 9.68 8.29 11.6 14.1 0.99 0.33 1.98 0.66 3 1 5 5.47 5 5.47 5 8h2c3 3.46 3 3.46 3 6 0.99 0.33 1.98 0.66 3 1 1.78 2.05 3.43 4.09 5.06 6.25 0.487 0.633 0.974 1.27 1.48 1.92 1.01 1.31 2.01 2.63 3.01 3.94 1.3 1.69 2.61 3.37 3.94 5.04 5.61 7.14 10.8 14.5 15.9 22 3.01 4.47 6.11 8.83 9.41 13.1 1.75 2.41 2.92 5.03 4.23 7.7 1.01 1.61 2.03 3.22 3.06 4.81 8.13 12.7 15.5 25.6 21.9 39.2 0.338 0.707 0.675 1.41 1.02 2.14 2.04 4.29 4.06 8.58 6.06 12.9 0.852 1.83 1.72 3.65 2.58 5.47 3 6.37 5.65 12.8 8.12 19.4 1.17 2.99 2.47 5.86 3.85 8.75 2.12 4.54 3.48 9.04 4.7 13.9 0.902 3.31 2.32 6.33 3.68 9.48 2.96 8.91 5.48 18 8 27 0.181 0.649 0.362 1.3 0.548 1.97 0.552 1.99 1.1 3.98 1.64 5.97 0.324 1.18 0.647 2.37 0.98 3.59 0.834 3.48 1.35 6.93 1.83 10.5 0.33 1.16 0.66 2.31 1 3.5 1 3.5 1 3.5 1.5 7.06 0.363 3.34 0.363 3.34 1.43 5.95 1.48 4.85 2.01 9.72 2.63 14.7 0.248 1.98 0.499 3.97 0.754 5.95 0.162 1.31 0.162 1.31 0.326 2.65 0.256 2.19 0.256 2.19 1.36 4.15 0.279 1.8 0.511 3.61 0.719 5.43 0.128 1.11 0.255 2.22 0.387 3.36 0.13 1.16 0.26 2.33 0.395 3.53 0.13 1.12 0.26 2.24 0.395 3.4 1.51 13.3 2.27 26.4 2.31 39.7 0.00283 0.768 0.00565 1.54 0.00857 2.33 0.0149 4.08 0.0242 8.16 0.0285 12.2 0.00435 3.3 0.0181 6.6 0.041 9.91 0.135 19.8-0.373 39.2-2.87 58.9-0.445 3.51-0.862 7.02-1.27 10.5-1.94 16.5-1.94 16.5-3.13 17.7-0.321 1.59-0.588 3.18-0.832 4.79-0.157 0.998-0.313 2-0.474 3.02-0.167 1.07-0.334 2.15-0.506 3.25-1.59 9.82-3.54 19.3-6.19 28.9-0.373 1.39-0.745 2.78-1.12 4.17-10.5 38.7-10.5 38.7-17.1 53.9-1.8 4.25-3.4 8.59-5.04 12.9-9.24 24.1-21.4 47.4-34.3 69.7-0.422 0.738-0.843 1.48-1.28 2.24-1.02 1.73-2.11 3.41-3.22 5.08h-2l-3 9h-2c-0.247 0.887-0.495 1.77-0.75 2.69-1.32 3.49-2.91 5.44-5.25 8.31-1.29 1.9-2.56 3.82-3.81 5.75-3.06 4.64-6.27 9.07-9.74 13.4-1.22 1.56-2.35 3.19-3.45 4.84h-2c-0.206 0.66-0.412 1.32-0.625 2-1.87 4.07-4.35 7.69-7.38 11h-2c-0.268 0.804-0.536 1.61-0.812 2.44-0.588 1.27-0.588 1.27-1.19 2.56-0.99 0.33-1.98 0.66-3 1-0.33 0.825-0.66 1.65-1 2.5-0.33 0.825-0.66 1.65-1 2.5-0.99 0.33-1.98 0.66-3 1-0.701 1.32-1.36 2.65-2 4-1.4 1.84-2.84 3.65-4.31 5.44-0.759 0.927-1.52 1.85-2.3 2.81-2.36 2.72-4.74 5.31-7.39 7.75h-2c-0.254 0.593-0.508 1.19-0.77 1.8-1.37 2.45-2.75 3.7-4.92 5.45-3.68 3.09-6.74 6.42-9.77 10.1-1.54 1.6-1.54 1.6-4.54 2.6-0.309 0.66-0.619 1.32-0.938 2-0.351 0.66-0.701 1.32-1.06 2-1.33 0.333-2.67 0.667-4 1-0.294 0.599-0.588 1.2-0.891 1.82-1.28 2.53-2.7 3.81-4.86 5.62l-2.15 1.81c-0.694 0.577-1.39 1.16-2.1 1.75-0.59 0.516-1.18 1.03-1.79 1.56-3.96 3.44-3.96 3.44-6.21 3.44-0.33 0.99-0.66 1.98-1 3-0.639 0.144-1.28 0.289-1.94 0.438-0.681 0.186-1.36 0.371-2.06 0.562-0.271 0.594-0.541 1.19-0.82 1.8-1.55 2.89-3.43 4.08-6.12 5.95-0.984 0.692-1.97 1.38-2.98 2.1-1.02 0.71-2.03 1.42-3.08 2.15-1.92 1.39-3.84 2.79-5.75 4.19-0.901 0.654-1.8 1.31-2.73 1.98-1.57 1.14-3.14 2.29-4.7 3.45-4.61 3.39-4.61 3.39-6.82 3.39-0.33 0.99-0.66 1.98-1 3-1.98 1.04-3.99 2.03-6 3-4.04 2.54-7.96 5.28-11.9 7.99-5.49 3.74-10.9 7.11-16.9 9.9-2.27 1.16-4.12 2.57-6.16 4.11-9.22 5.37-18.8 9.94-28.5 14.4-3.26 1.51-6.49 3.05-9.68 4.7-4.15 2.11-8.45 3.83-12.8 5.59-2.79 1.17-5.51 2.42-8.24 3.72-6.67 3.07-13.6 5.39-20.5 7.77-2.51 0.88-5.01 1.8-7.51 2.73-6.11 2.23-12.3 4.17-18.5 6.07-1.72 0.525-1.72 0.525-3.47 1.06-51.1 15.5-104 22.2-157 22.2-1.2-6.85e-4 -2.4-0.00137-3.63-0.00208-3.41-0.00644-6.81-0.0227-10.2-0.0448-1.03-0.00439-2.07-0.00878-3.14-0.0133-0.946-0.00947-1.89-0.0189-2.87-0.0287-0.829-0.00683-1.66-0.0137-2.51-0.0207-2.01-0.14-2.01-0.14-4.01-1.14-2.03-0.212-4.08-0.369-6.12-0.5-1.25-0.0825-2.5-0.165-3.78-0.25-1.31-0.0825-2.62-0.165-3.98-0.25-15.2-0.988-15.2-0.988-21.9-1.5-0.954-0.0722-1.91-0.144-2.89-0.219-2.29-0.281-2.29-0.281-4.29-1.28-1.8-0.278-3.6-0.51-5.41-0.719-1.07-0.128-2.14-0.255-3.25-0.387-2.27-0.263-4.55-0.526-6.82-0.789-1.07-0.128-2.14-0.255-3.24-0.387-0.988-0.114-1.98-0.228-2.99-0.346-2.28-0.373-2.28-0.373-3.28-1.37-2.69-0.474-5.37-0.904-8.06-1.31-8.13-1.29-16-3.07-24-5.18-1.98-0.515-3.97-1-5.96-1.48-11.6-2.78-22.9-6.07-34-10.3-3.07-1.15-6.18-2.18-9.28-3.23-25.2-8.74-50.7-19.2-73.7-32.8-2.94-1.7-5.94-3.21-8.98-4.73-8.2-4.37-16.2-8.91-23.7-14.4-2.37-1.67-4.79-3.15-7.29-4.61-10.8-6.38-20.8-14.1-30.9-21.5-1.39-1-2.8-1.98-4.21-2.95-1.66-1.14-3.28-2.34-4.89-3.56v-2c-0.804-0.268-1.61-0.536-2.44-0.812-1.27-0.588-1.27-0.588-2.56-1.19-0.33-0.99-0.66-1.98-1-3-1.33-0.68-2.66-1.34-4-2-2.19-1.76-4.32-3.53-6.44-5.38-0.616-0.533-1.23-1.07-1.87-1.62-5.78-5.03-11.4-10.2-17-15.4-1.78-1.65-3.57-3.29-5.36-4.93-5.53-5.06-10.9-10.1-15.8-15.8-1.72-1.99-3.55-3.8-5.44-5.62-4.06-3.99-7.6-8.32-11.1-12.8-1.86-2.37-1.86-2.37-3.74-4.12-1.24-1.3-1.24-1.3-1.24-3.3h-2c-1.58-1.86-3.05-3.73-4.5-5.69-0.905-1.2-1.81-2.4-2.71-3.61-0.694-0.927-0.694-0.927-1.4-1.87-1.3-1.72-2.62-3.43-3.95-5.14-5.05-6.46-9.83-13-14.4-19.8-1.32-1.9-2.71-3.75-4.16-5.56-1.82-2.28-3.19-4.63-4.59-7.18-1.6-2.71-3.36-5.29-5.13-7.89-3.16-4.7-5.97-9.46-8.62-14.5-2.15-3.99-4.47-7.88-6.79-11.8-2.05-3.61-3.88-7.3-5.71-11-0.677-1.36-1.36-2.71-2.04-4.07-4.06-8.12-4.06-8.12-5.04-10.1-0.837-1.67-1.68-3.34-2.52-5.01-1.79-3.6-3.44-7.26-5.09-10.9-0.829-1.83-1.67-3.65-2.54-5.46-3.29-6.95-5.85-14.1-8.35-21.3-1.82-5.27-3.71-10.5-5.96-15.6-1.63-3.91-2.82-7.83-3.97-11.9-1.31-4.57-2.62-9.13-4.19-13.6-1.23-3.59-2.07-7.19-2.85-10.9-0.391-1.78-0.884-3.54-1.4-5.29-1.34-4.8-2.32-9.65-3.34-14.5-0.511-2.32-1.12-4.63-1.79-6.91-1.17-4.22-1.82-8.47-2.47-12.8-0.336-2.55-0.336-2.55-1.46-4.57-0.414-2.54-0.784-5.08-1.12-7.63-0.104-0.773-0.209-1.55-0.316-2.34-0.339-2.53-0.67-5.06-1-7.59-0.113-0.862-0.226-1.72-0.342-2.61-4.36-33.4-6.33-66.9-4.35-101 0.0445-0.777 0.0889-1.55 0.135-2.35 0.546-9.52 1.16-19 2.05-28.5 0.0791-0.845 0.158-1.69 0.24-2.56 0.564-5.55 0.564-5.55 1.7-7.81 0.267-1.87 0.488-3.75 0.684-5.64l0.373-3.44c0.252-2.39 0.502-4.78 0.75-7.16 0.633-5.81 1.45-11.2 3.19-16.8 0.686-3.15 1.27-6.33 1.88-9.5 1.45-7.45 3.16-14.7 5.19-22 0.928-3.43 1.73-6.87 2.5-10.3 0.972-4.29 2.1-8.41 3.56-12.6 1.41-4.12 2.65-8.29 3.9-12.5 1.69-5.5 3.8-10.8 5.98-16.1 0.668-1.67 1.33-3.33 2-5 4-10 4-10 5-12.5 0.674-1.69 1.34-3.38 2.01-5.07 2.08-5.27 4.3-10.4 6.74-15.6 0.344-0.724 0.687-1.45 1.04-2.2 5.12-10.7 10.5-21.3 16-31.9l1.13-2.14c1.92-3.62 3.91-7.17 6.06-10.7 0.449-0.755 0.897-1.51 1.36-2.29 7.8-13.1 16.2-25.9 25-38.3 2.22-3.2 4.32-6.49 6.41-9.79 0.416-0.534 0.833-1.07 1.26-1.62h2c0.103-0.598 0.206-1.2 0.312-1.81 0.798-2.54 1.81-3.34 3.69-5.19 0.857-1.15 1.69-2.32 2.5-3.5 1.66-2.42 3.4-4.45 5.5-6.5 0.578-0.722 1.16-1.44 1.75-2.19 5.33-6.67 11.1-12.9 16.9-19.2 2.21-2.47 4.27-5.02 6.33-7.61 1.65-1.69 3.31-3.35 5-5 0.825-0.825 1.65-1.65 2.5-2.5l7.5-7.5c0.672-0.683 1.34-1.37 2.04-2.07 4.11-4.16 8.28-8.17 12.7-12 2.28-1.99 4.5-4.04 6.72-6.11 4.63-4.31 9.28-8.28 14.5-11.8 0.679-0.681 0.679-0.681 1.37-1.38 11.1-11.1 25.5-20.1 38.6-28.6 1.11-0.749 2.22-1.5 3.32-2.25 1.09-0.741 2.18-1.48 3.3-2.25 0.982-0.67 1.96-1.34 2.98-2.03 2.4-1.47 2.4-1.47 4.4-1.47v-2c0.518-0.286 1.04-0.573 1.57-0.867 4.32-2.39 8.63-4.81 12.9-7.25 9.73-5.54 19.4-11 29.5-15.9 1.92-0.962 3.84-1.93 5.75-2.9 14.2-7.14 28.4-13.5 43.2-19.1 0.68-0.257 1.36-0.514 2.06-0.779 5.53-2.09 11.1-4.07 16.7-6.04 1.89-0.684 3.77-1.39 5.63-2.15 8.13-3.19 16.5-5.38 24.9-7.54 1.15-0.295 2.29-0.59 3.47-0.895 17.5-4.49 34.9-8.8 52.7-11.8 1.47-0.25 1.47-0.25 2.98-0.506 5.79-0.95 11.5-1.63 17.4-2.05 2.24-0.131 2.24-0.131 4.2-1.25 1.65-0.21 3.3-0.369 4.96-0.5 1.55-0.124 1.55-0.124 3.12-0.25 1.63-0.124 1.63-0.124 3.29-0.25 1.02-0.0825 2.03-0.165 3.08-0.25 3.51-0.275 7.03-0.517 10.5-0.75 0.702-0.0486 1.4-0.0971 2.13-0.147 13.7-0.923 27.4-0.867 41.1-0.556z" fill="#000002"/>
<path transform="translate(695 64.9)" d="m0 0c0.987-0.00144 0.987-0.00144 1.99-0.0029 1.39-6.81e-4 2.78 0.00117 4.18 0.00534 2.13 0.00535 4.27 5.1e-5 6.4-0.00635 1.35 6.61e-4 2.7 0.00194 4.05 0.00391 1.85 0.00169 1.85 0.00169 3.74 0.00342 2.95 0.129 2.95 0.129 4.95 1.13 2.91 0.204 5.8 0.354 8.71 0.465 1.82 0.0787 3.64 0.158 5.46 0.236 2.85 0.118 5.7 0.234 8.55 0.348 10.1 0.409 20.1 0.92 30.1 1.95 0.813 0.0828 1.63 0.166 2.46 0.251 5.59 0.617 5.59 0.617 6.72 1.75 1.48 0.239 2.98 0.421 4.47 0.578 0.951 0.106 1.9 0.213 2.88 0.322 1.04 0.115 2.08 0.231 3.15 0.35 17.3 2.05 34.4 5.52 51.3 9.91 2.72 0.701 5.43 1.33 8.18 1.9 3.71 0.796 7.22 1.97 10.8 3.22 2.9 0.926 5.83 1.53 8.82 2.09 2.8 0.719 5.45 1.74 8.15 2.77 5.14 1.91 10.4 3.55 15.6 5.25 5.02 1.65 9.86 3.46 14.7 5.61 1.9 0.709 3.81 1.42 5.71 2.12 2.73 1.05 5.41 2.18 8.1 3.32 4.75 2 9.54 3.81 14.4 5.47 3.71 1.46 7.21 3.27 10.8 5.09 1.24 0.621 2.48 1.24 3.72 1.86 1.96 0.978 3.91 1.96 5.87 2.94 3.43 1.72 6.86 3.43 10.3 5.11 7.68 3.77 15.2 7.73 22.7 11.8 0.841 0.46 1.68 0.92 2.55 1.39 4.42 2.44 8.64 5.02 12.8 7.86 1.43 0.812 2.86 1.61 4.31 2.38 3.82 2.1 7.44 4.38 11 6.83 2.04 1.39 4.09 2.76 6.16 4.12 7.64 5.04 15.1 10.2 22.5 15.7 0.694 0.51 1.39 1.02 2.1 1.55 7.41 5.49 14.5 11.3 21.6 17.2 2.8 2.31 5.56 4.55 8.62 6.5 2.94 1.96 5.16 4.22 7.62 6.75l3 2.5c3.42 2.85 6.48 5.94 9.59 9.12 3.06 3.1 6.16 6.05 9.48 8.88 3.14 2.7 5.75 5.54 8.36 8.74 2.39 2.66 5.15 4.86 7.95 7.09 1.87 1.91 2.01 3.15 2.64 5.68 0.99 0.33 1.98 0.66 3 1 1.47 1.46 1.47 1.46 3.06 3.38 2.82 3.33 5.72 6.56 8.69 9.75 5.33 5.84 10.2 12 15 18.3 1.77 2.27 3.57 4.51 5.38 6.74 17.4 21.8 33.5 45.4 46.9 69.9 0.445 0.81 0.89 1.62 1.35 2.45 5.72 10.4 11.2 21 16.7 31.5 0.411 0.793 0.823 1.59 1.25 2.4 4.01 7.75 7.69 15.5 10.6 23.7 1.07 2.92 1.07 2.92 2.57 5.77 1.7 3.41 3.05 6.9 4.35 10.5 0.522 1.41 1.04 2.83 1.57 4.24 0.266 0.721 0.531 1.44 0.805 2.19 0.812 2.19 1.64 4.37 2.47 6.56 0.268 0.705 0.535 1.41 0.811 2.14 0.509 1.34 1.02 2.68 1.53 4.01 1.56 4.12 2.83 8.25 4 12.5 0.488 1.55 0.986 3.09 1.5 4.62 0.257 0.767 0.513 1.53 0.777 2.32 0.535 1.52 1.14 3.01 1.79 4.49 0.901 2.46 1.39 4.74 1.88 7.31 0.789 4.19 1.94 8.08 3.34 12.1 1.94 5.75 3.07 11.7 4.16 17.7 0.528 2.56 0.528 2.56 1.52 5.23 1.06 3.31 1.7 6.48 2.26 9.91 0.21 1.25 0.42 2.51 0.637 3.8 0.213 1.3 0.425 2.59 0.645 3.93 1.45 9.41 1.45 9.41 3.54 18.7 1.53 5.78 2.16 11.7 2.9 17.6 0.0849 0.681 0.17 1.36 0.257 2.06 1.82 14.9 2.72 29.9 3.56 44.9 0.0648 1.15 0.13 2.29 0.197 3.47 1.02 18.3 1.25 36.2 0.178 54.5-0.0461 0.793-0.0922 1.59-0.14 2.4-0.274 4.68-0.561 9.37-0.859 14-0.109 1.71-0.215 3.43-0.321 5.14-0.862 13.3-2.84 26.5-4.81 39.7-0.132 0.883-0.263 1.77-0.399 2.67-0.383 2.55-0.772 5.11-1.16 7.66-0.115 0.759-0.229 1.52-0.347 2.3-0.706 4.54-1.59 9-2.62 13.5-0.946 4.22-1.66 8.49-2.41 12.7-0.949 5.23-0.949 5.23-2.06 6.34-0.331 1.41-0.613 2.83-0.875 4.25-1.77 9.17-3.68 18.1-7.12 26.8-1 3.27-1.89 6.54-2.68 9.86-0.373 1.55-0.373 1.55-0.754 3.14l-0.684 2.94c-1.01 3.51-2.42 6.72-3.88 10.1-0.917 2.54-1.81 5.07-2.69 7.62-2.39 6.85-4.87 13.7-7.44 20.4-0.487 1.3-0.487 1.3-0.983 2.63-1.75 4.61-3.68 9.03-5.94 13.4-1.55 3.07-2.86 6.23-4.21 9.4-3.6 8.33-7.6 16.4-11.8 24.5-0.456 0.892-0.911 1.78-1.38 2.7-6.15 12-12.4 23.9-19.6 35.3-0.58 0.933-1.16 1.87-1.76 2.83-13.5 21.4-27.8 42.4-44.2 61.7-2.06 2.38-2.06 2.38-3.71 4.78-0.445 0.552-0.889 1.1-1.35 1.67h-2c-0.224 0.519-0.449 1.04-0.68 1.57-1.82 3.34-4.11 6.26-6.45 9.24-0.492 0.627-0.984 1.25-1.49 1.9-3.21 4.01-6.53 7.47-10.5 10.7-2.73 2.35-4.94 5.09-7.2 7.89-1.76 1.82-3.38 2.62-5.64 3.7-0.685 1.32-1.35 2.66-2 4-3.2 3.47-6.72 6.49-10.3 9.54-3.05 2.64-5.82 5.55-8.59 8.48-0.69 0.715-1.38 1.43-2.09 2.17-0.639 0.674-1.28 1.35-1.94 2.04-2.06 1.77-2.06 1.77-4.69 2.76-2.49 0.757-2.49 0.757-3.27 2.8-1.75 3.49-4.78 5.34-7.86 7.65-1.22 0.935-2.45 1.87-3.67 2.81-0.603 0.46-1.21 0.92-1.83 1.39-2.64 2.05-5.19 4.22-7.75 6.36-10.7 8.45-21.7 16.5-33.1 24.1-2.63 1.76-5.2 3.58-7.77 5.43-5.01 3.54-10.3 6.53-15.6 9.51-2.48 1.39-4.9 2.86-7.31 4.38-13.5 8.51-27.5 16-42 22.6-3.47 1.58-6.93 3.2-10.4 4.82-0.618 0.287-1.24 0.574-1.87 0.87-3.11 1.45-6.2 2.94-9.25 4.51-7.37 3.72-15.1 6.32-23 8.88-3.33 1.13-6.5 2.54-9.73 3.93-3.47 1.28-6.96 2.51-10.4 3.74-3.06 1.09-6.08 2.23-9.11 3.39-5.04 1.85-10.1 3.02-15.4 4.16-3.38 0.788-6.59 1.83-9.86 2.97-8.32 2.82-16.9 4.58-25.5 6.3-3.31 0.672-6.46 1.35-9.65 2.47-4.39 1.39-8.83 1.92-13.4 2.54-1.81 0.248-3.62 0.499-5.43 0.754-1.19 0.162-1.19 0.162-2.41 0.326-1.86 0.179-1.86 0.179-2.85 1.36-2.49 0.361-4.96 0.667-7.46 0.938-0.749 0.085-1.5 0.17-2.27 0.258-2.4 0.272-4.8 0.539-7.2 0.805-2.4 0.266-4.8 0.533-7.19 0.805-1.49 0.169-2.99 0.335-4.48 0.498-3.81 0.394-3.81 0.394-7.38 1.7-37.4 5.13-78.3 3.4-116 1.06-0.7-0.0434-1.4-0.0868-2.12-0.131-10.8-0.697-10.8-0.697-12-1.93-2.36-0.361-4.7-0.667-7.06-0.938-0.706-0.085-1.41-0.17-2.14-0.258-2.27-0.272-4.53-0.539-6.8-0.805-2.98-0.349-5.96-0.704-8.94-1.06-0.692-0.0792-1.38-0.158-2.1-0.24-4.85-0.585-4.85-0.585-5.97-1.7-1.85-0.345-3.71-0.636-5.57-0.902-1.71-0.252-1.71-0.252-3.46-0.51-2.41-0.347-4.83-0.694-7.24-1.04-1.15-0.17-2.3-0.339-3.48-0.514-1.05-0.151-2.1-0.301-3.19-0.457-3.15-0.597-6.03-1.53-9.05-2.58-2.49-0.533-4.99-1.03-7.5-1.5-4.66-0.872-9.02-1.96-13.5-3.5-1.93-0.498-3.87-0.977-5.81-1.44-5.17-1.27-10.2-2.8-15.2-4.56-6.46-2.24-13-4.14-19.6-5.94-3.61-1.12-6.97-2.55-10.4-4.06-2.55-0.991-5.12-1.93-7.69-2.88-6.84-2.54-13.6-5.24-20.3-8.12l-1.81-0.769c-10.3-4.36-20.3-9.16-30.2-14.2-2.59-1.3-5.18-2.6-7.78-3.87-15.4-7.63-31.1-15.8-45.1-25.9-2.6-1.87-5.2-3.42-7.99-4.97-5.22-3.14-10.2-6.76-15.1-10.3l-2.65-1.87c-6.77-4.85-13.3-9.97-19.9-15.1-3.45-2.7-6.89-5.33-10.5-7.81-0.975-0.726-1.95-1.45-2.95-2.2v-2c-0.882-0.414-0.882-0.414-1.78-0.837-3.56-1.86-6.53-4.41-9.66-6.91l-1.99-1.55c-3.06-2.45-5.83-4.84-8.3-7.9-2-2.46-3.68-4.04-6.28-5.8-3.7-2.66-6.18-5.42-9-9-2.52-2.65-5.03-5.02-7.88-7.31-3.22-2.62-5.83-5.67-8.51-8.82-1.69-2.01-1.69-2.01-4.05-4.24-1.56-1.62-1.56-1.62-1.56-3.62h-2c-1.34-1.29-1.34-1.29-2.94-3.19-0.62-0.73-1.24-1.46-1.88-2.21-0.721-0.859-1.44-1.72-2.18-2.6-0.855-1-1.71-2.01-2.59-3.04-5.89-6.92-11.7-13.9-17.4-21-0.744-0.887-1.49-1.77-2.25-2.69-1.75-2.31-1.75-2.31-1.75-4.31h-2c-1.38-1.7-1.38-1.7-3-4.12-2.47-3.64-4.98-7.25-7.56-10.8-9.38-13-18-26.4-26.3-40.1-0.992-1.65-1.99-3.29-2.99-4.93-3.06-5.04-5.94-10.2-8.74-15.4-1.72-3.19-3.49-6.35-5.27-9.5-5.9-10.9-10.8-22.3-15.9-33.6-0.377-0.828-0.753-1.66-1.14-2.51-1.97-4.36-3.79-8.74-5.43-13.2-0.974-2.62-2.07-5.18-3.17-7.75-1.79-4.26-3.39-8.51-4.73-12.9-0.788-2.31-0.788-2.31-2.25-5.05-1.41-2.87-2.38-5.53-3.27-8.59-1.25-4.22-2.54-8.42-3.92-12.6-3.44-10.5-6.41-20.8-8.6-31.6-0.384-3.1-0.384-3.1-1.73-4.26-0.574-2.83-1.03-5.68-1.5-8.53-0.25-2.4-0.25-2.4-1.5-3.47-0.282-1.31-0.513-2.64-0.719-3.96-0.128-0.8-0.255-1.6-0.387-2.42-0.13-0.841-0.26-1.68-0.395-2.55-0.257-1.66-0.518-3.31-0.781-4.96-0.171-1.11-0.171-1.11-0.346-2.23-0.305-1.95-0.305-1.95-1.37-3.86-0.276-1.64-0.509-3.29-0.719-4.94-0.128-0.977-0.255-1.95-0.387-2.96-0.263-2.07-0.526-4.14-0.789-6.2-0.128-0.977-0.255-1.95-0.387-2.96-0.114-0.898-0.228-1.8-0.346-2.72-0.268-2.25-0.268-2.25-1.37-4.21-0.356-2.64-0.664-5.26-0.938-7.91-0.085-0.8-0.17-1.6-0.258-2.43-0.18-1.71-0.358-3.41-0.534-5.12-0.264-2.55-0.536-5.1-0.81-7.64-2.08-19.6-2.66-39.1-2.65-58.8-3.93e-4 -1.23-7.86e-4 -2.46-0.00119-3.72 0.00584-15.3 0.18-30.5 1.13-45.8 0.0435-0.711 0.087-1.42 0.132-2.16 0.708-11.2 0.708-11.2 1.93-12.4 0.276-2.05 0.492-4.1 0.684-6.16 0.123-1.27 0.246-2.54 0.373-3.85 0.253-2.68 0.501-5.35 0.75-8.03 0.636-6.53 1.47-12.6 3.19-19 0.555-3.83 0.997-7.67 1.44-11.5 0.562-3.49 0.562-3.49 1.52-5.85 1.56-3.93 2.08-7.99 2.8-12.1 1.85-10.2 4.51-20.1 7.52-30.1 0.678-2.26 1.33-4.53 1.98-6.79 2.26-7.92 4.72-15.8 7.31-23.6 0.281-0.852 0.562-1.7 0.851-2.58 1.73-5.17 3.64-10.2 5.7-15.3 1.01-2.51 1.93-5.03 2.83-7.58 2.15-5.96 4.57-11.8 7.06-17.6 0.385-0.907 0.385-0.907 0.777-1.83 4.36-10.3 9.12-20.3 14.2-30.2 0.675-1.31 0.675-1.31 1.36-2.65 1.46-2.83 2.92-5.65 4.39-8.47 0.46-0.889 0.92-1.78 1.39-2.69 2.4-4.59 4.96-8.89 7.86-13.2 1.01-1.94 1.99-3.9 2.94-5.88 2.43-4.93 4.93-9.6 8.06-14.1h2l0.625-2.44c2.22-5.74 5.74-10.6 9.62-15.3 1.82-2.34 2.67-4.51 3.75-7.25l3-3c1.17-1.61 2.32-3.23 3.44-4.88 2.41-3.49 4.88-6.85 7.56-10.1 0.66-0.99 1.32-1.98 2-3h2c0.25-0.722 0.5-1.44 0.758-2.19 1.35-3.06 2.98-5.24 5.12-7.81 0.678-0.825 1.36-1.65 2.05-2.5 0.683-0.825 1.37-1.65 2.07-2.5 1.06-1.39 1.06-1.39 2.13-2.81 0.616-0.722 1.23-1.44 1.87-2.19h2l0.688-2.19c1.59-3.4 3.62-5.18 6.31-7.81 1.18-1.49 2.35-2.99 3.5-4.5 2.63-3.44 5.35-6.52 8.5-9.5l2.31-2.31c1.52-1.52 3.04-3.03 4.57-4.54 3.18-3.14 6.27-6.27 9.12-9.71 3.73-4.45 8.11-8.13 12.6-11.7 2.66-2.13 4.92-4.3 7.05-6.95 5.13-6.18 11.8-11 18.3-15.6 2.32-1.64 4.04-3.13 6-5.12 1.65-1.35 3.32-2.68 5-4 0.887-0.742 1.77-1.49 2.69-2.25 2.31-1.75 2.31-1.75 4.31-1.75 0.33-0.99 0.66-1.98 1-3 1.89-1.5 1.89-1.5 4.25-3 0.812-0.522 1.62-1.04 2.46-1.58 1.71-1.06 3.43-2.09 5.16-3.11 2.1-1.17 2.1-1.17 3.39-2.64 2.32-2.25 4.88-3.97 7.54-5.8 0.564-0.388 1.13-0.776 1.71-1.18 4.87-3.33 9.82-6.54 14.8-9.69 2.26-1.43 4.48-2.86 6.61-4.49 1.96-1.45 3.91-2.61 6.05-3.76 6.89-3.76 13.6-7.78 20.4-11.8 1.02-0.599 2.05-1.2 3.1-1.82 0.917-0.539 1.83-1.08 2.78-1.63 4.96-2.8 10.1-5.16 15.3-7.39 2.62-1.2 2.62-1.2 5.72-3.07 3.82-2.21 7.78-3.95 11.8-5.66 4.51-1.9 8.69-3.88 12.9-6.44 1.55-0.684 3.11-1.33 4.69-1.94 0.875-0.34 1.75-0.681 2.65-1.03 0.878-0.34 1.76-0.681 2.66-1.03 1.58-0.645 3.17-1.29 4.75-1.94 5.29-2.12 10.6-4.01 16-5.91 2.41-0.856 4.79-1.73 7.18-2.65 5.03-1.91 10.1-3.55 15.3-5.24 2.35-0.774 4.69-1.56 7.02-2.37 5.94-2.04 11.9-3.75 18-5.18 2.83-0.683 2.83-0.683 5.71-1.7 3.32-1.08 6.6-1.81 10-2.51 3.55-0.724 7.02-1.49 10.5-2.5 3.8-1.07 7.61-1.82 11.5-2.5 3.98-0.703 7.88-1.45 11.8-2.5 5.48-1.41 11.1-1.93 16.7-2.57 2.17-0.247 4.33-0.499 6.5-0.754 0.949-0.108 1.9-0.215 2.88-0.326 2.16-0.134 2.16-0.134 3.19-1.36 2.27-0.291 4.56-0.518 6.84-0.719 0.706-0.0625 1.41-0.125 2.14-0.189 2.32-0.203 4.64-0.398 6.96-0.592 0.785-0.0673 1.57-0.135 2.38-0.204 11.7-0.996 23.3-1.71 35-2.01 0.988-0.0264 1.98-0.0529 2.99-0.0801 0.856-0.0176 1.71-0.0351 2.59-0.0532 3.73-0.286 6.77-1.29 10.7-1.29zm-37.5 55.9c-4.54 0.399-9.09 0.701-13.6 1.01-2.55 0.125-2.55 0.125-4.56 1.28-2.08 0.283-4.16 0.524-6.25 0.75-7.8 0.908-15.5 2.13-23.3 3.42-1.34 0.222-2.68 0.442-4.02 0.661-1.92 0.314-3.84 0.634-5.76 0.955-1.12 0.186-2.24 0.373-3.39 0.564-3.5 0.696-6.87 1.64-10.3 2.65-2.52 0.596-5.04 1.18-7.56 1.75-7.02 1.62-14 3.42-20.9 5.31-1.36 0.368-1.36 0.368-2.75 0.743-8.4 2.31-16.6 5.07-24.7 8.19-4.46 1.7-8.9 3.32-13.5 4.62-3.83 1.1-7.34 2.53-11 4.21-3.31 1.48-6.68 2.78-10 4.1-6.04 2.39-11.8 5.07-17.6 8.06-2.7 1.36-5.41 2.71-8.12 4.06-1.97 0.984-3.94 1.97-5.9 2.95-1.33 0.664-2.66 1.33-3.99 1.99-4.44 2.21-8.85 4.48-13.2 6.81-0.966 0.515-0.966 0.515-1.95 1.04-5.09 2.73-10.1 5.6-15.1 8.54-3.88 2.27-7.8 4.45-11.7 6.61v2l-2.07 0.719c-3.56 1.56-6.67 3.6-9.87 5.78-0.655 0.441-1.31 0.883-1.98 1.34-12.7 8.59-25.2 17.6-37.1 27.2l-2.44 1.94c-6.43 5.18-12.5 10.6-18.6 16.3-2.42 2.26-4.88 4.45-7.39 6.61-3.12 2.7-6.02 5.56-8.91 8.51-1.69 1.65-3.45 3.13-5.28 4.62-3.27 2.73-5.58 5.81-8.04 9.26-1.83 2.37-4.04 3.97-6.39 5.8-4.74 4.97-8.97 10.4-13.2 15.8-1.8 2.2-1.8 2.2-3.28 3.68-2.03 2.03-3.74 4.26-5.52 6.52-8 10-8 10-10.2 12.7-1.95 2.09-1.95 2.09-1.75 4.31h-2c-1.41 1.97-2.71 3.96-4 6-0.833 1.23-1.67 2.45-2.52 3.66-0.442 0.641-0.885 1.28-1.34 1.94-0.46 0.666-0.92 1.33-1.39 2.02-8.93 13-17.8 26-25.3 39.8-1.14 2.07-2.29 4.12-3.46 6.17-6.68 11.7-12.7 23.7-18.4 35.9-1.78 3.85-3.66 7.63-5.62 11.4-3.59 7.13-6.26 14.6-8.94 22.1-0.395 1.1-0.395 1.1-0.798 2.23-4.03 11.3-7.86 22.6-11.4 34-0.915 2.95-1.85 5.89-2.83 8.82-1.07 3.23-2.03 6.48-2.97 9.75-0.33 1.14-0.66 2.28-1 3.46-2.25 8.39-3.85 16.9-5.5 25.4-0.707 3.6-1.43 7.07-2.53 10.6-1.47 5.6-1.94 11.3-2.54 17-0.248 2.35-0.499 4.7-0.754 7.05-0.162 1.55-0.162 1.55-0.326 3.13-0.357 2.5-0.357 2.5-1.36 4.5-0.285 2.45-0.521 4.88-0.719 7.33-0.0939 1.11-0.0939 1.11-0.19 2.24-0.202 2.41-0.397 4.83-0.592 7.24-0.0669 0.819-0.134 1.64-0.203 2.48-0.771 9.46-1.52 18.9-1.98 28.4-0.0361 0.718-0.0722 1.44-0.109 2.18-0.579 13.8-0.206 27.7 0.547 41.5 0.0624 1.17 0.0624 1.17 0.126 2.37 1.81 36.5 1.81 36.5 8.62 72.2 0.889 3.67 1.38 7.4 1.94 11.1 0.501 2.96 0.501 2.96 1.53 5.82 1.58 4.75 2.34 9.63 3.25 14.5 0.676 3.08 1.56 5.67 2.78 8.56 0.462 1.62 0.898 3.24 1.31 4.88 1.9 7.15 4.3 14.1 6.69 21.1 1.55 4.58 3.05 9.16 4.38 13.8 1.76 5.92 4.19 11.5 6.62 17.2 0.835 2.02 1.67 4.04 2.5 6.06 2.03 4.87 4.17 9.68 6.39 14.5 0.718 1.59 1.4 3.2 2.05 4.83 1.37 3.39 2.9 6.7 4.44 10 0.291 0.634 0.583 1.27 0.883 1.92 1.48 3.18 3.03 6.27 4.79 9.31 1.75 3.04 3.31 6.1 4.83 9.27 2.3 4.66 4.87 8.92 7.82 13.2 1.7 2.53 2.96 5.21 4.3 7.94 3.47 6.13 7.28 12 11.4 17.7 1.03 1.48 2.01 3 2.94 4.55 6.98 11.6 15 22.5 23.7 32.8 3.12 3.92 6.22 7.83 9 12h2l0.738 1.7c1.5 2.74 3.33 4.75 5.45 7.05 0.804 0.878 1.61 1.76 2.44 2.66 0.784 0.855 1.57 1.71 2.38 2.59 3.88 4.37 7.69 8.79 11.4 13.3 4.2 4.7 8.88 8.95 13.5 13.2 1.34 1.24 2.67 2.49 4.01 3.73 1.01 0.94 1.01 0.94 2.04 1.9 1.91 1.78 3.81 3.57 5.71 5.36 11.1 11.5 11.1 11.5 24.3 19.5 0.33 0.99 0.66 1.98 1 3 0.825 0.33 1.65 0.66 2.5 1 0.825 0.33 1.65 0.66 2.5 1 0.33 0.99 0.66 1.98 1 3 1.96 1.39 3.97 2.72 6 4 1.14 0.816 2.28 1.64 3.41 2.48 0.591 0.437 1.18 0.875 1.79 1.33 0.615 0.456 1.23 0.912 1.86 1.38 10.4 7.66 21 15 31.9 21.8l3.26 2.04c5.48 3.4 11 6.73 16.6 9.76 2.1 1.2 2.1 1.2 4.89 3.11 3.39 2.21 6.88 4.02 10.5 5.78 6.67 3.27 13.2 6.69 19.8 10.3 3.86 2.08 7.69 3.79 11.8 5.27 4.09 1.52 8.06 3.35 12.1 5.1 8 3.47 16 6.6 24.3 9.4 2.54 0.869 5.04 1.76 7.54 2.71 15.4 5.83 31 10.5 47.1 14.1 2.63 0.61 5.21 1.35 7.8 2.12 5.7 1.63 11.5 2.48 17.4 3.37 5.83 0.903 5.83 0.903 6.93 2 1.75 0.286 3.51 0.515 5.28 0.719 1.07 0.128 2.14 0.255 3.24 0.387 1.13 0.13 2.25 0.26 3.42 0.395 2.22 0.257 4.44 0.517 6.65 0.781 0.989 0.114 1.98 0.228 3 0.346 2.41 0.373 2.41 0.373 4.41 1.37 1.53 0.209 3.06 0.368 4.59 0.5 0.94 0.0819 1.88 0.164 2.85 0.248 1.01 0.0831 2.02 0.166 3.06 0.252 1.03 0.0876 2.05 0.175 3.11 0.265 7.32 0.608 14.6 1.08 22 1.39 5.2 0.239 5.2 0.239 7.41 1.34 1.46 0.11 2.92 0.159 4.38 0.177 0.917 0.0126 1.83 0.0253 2.78 0.0383 1.01 0.00757 2.01 0.0151 3.05 0.0229 1.05 0.00975 2.1 0.0195 3.19 0.0295 41.2 0.301 83.1-1.43 123-10.8 2.59-0.596 5.19-1.15 7.79-1.7 0.964-0.206 1.93-0.411 2.92-0.623 1.97-0.42 3.94-0.836 5.91-1.25 6.32-1.35 12.5-3.01 18.6-4.94 2.09-0.635 4.18-1.27 6.28-1.9 2.22-0.678 4.44-1.36 6.66-2.04 1.1-0.335 2.21-0.669 3.34-1.01 6.13-1.88 12.2-3.89 18.2-6.12 2.3-0.849 4.61-1.66 6.93-2.46 7.16-2.46 14.2-5.02 21-8.27 2.71-1.26 5.44-2.39 8.21-3.52 18.4-7.58 36.2-16.8 53.3-26.9 2.17-1.27 4.34-2.52 6.54-3.75 6.33-3.55 12.4-7.24 18.3-11.5 2.95-2.07 6.03-3.79 9.19-5.54 0.99-0.66 1.98-1.32 3-2v-2c0.669-0.215 1.34-0.431 2.03-0.652 3.95-1.79 7.12-4.27 10.5-6.91 1.42-1.08 2.84-2.16 4.25-3.25 0.701-0.537 1.4-1.07 2.13-1.63 1.91-1.45 3.83-2.87 5.77-4.29 0.558-0.409 1.12-0.817 1.69-1.24 1.51-1.1 3.02-2.2 4.53-3.3 0.681-0.575 1.36-1.15 2.06-1.74v-2c1.65-0.66 3.3-1.32 5-2v-2c0.568-0.262 1.14-0.523 1.72-0.793 6.08-3.22 11.7-8.06 16.3-13.2v-2c0.804-0.268 1.61-0.536 2.44-0.812 1.27-0.588 1.27-0.588 2.56-1.19 0.33-0.99 0.66-1.98 1-3 1.33-0.673 2.66-1.34 4-2 1.92-1.93 1.92-1.93 3.75-4.19 3.33-3.88 6.82-7.18 10.8-10.4 0.485-0.465 0.969-0.931 1.47-1.41v-2c0.99-0.33 1.98-0.66 3-1 1.61-1.55 1.61-1.55 3.19-3.5 3.35-3.96 6.8-7.8 10.3-11.6 1.71-1.74 1.71-1.74 1.5-3.88 0.99-0.33 1.98-0.66 3-1 0.309-0.804 0.619-1.61 0.938-2.44 1.28-3.09 2.18-3.17 5.06-4.56 0.362-1.33 0.697-2.66 1-4 0.99-0.33 1.98-0.66 3-1 1.9-2.24 1.9-2.24 3.69-4.94 0.623-0.896 1.25-1.79 1.89-2.71 1.6-2.17 1.6-2.17 1.43-4.35 0.99-0.33 1.98-0.66 3-1 0.979-1.38 1.95-2.78 2.85-4.21 1.22-1.88 2.54-3.64 3.9-5.41 4-5.29 7.6-10.8 11.2-16.4 0.74-1.07 1.48-2.14 2.24-3.24 1.94-2.49 1.94-2.49 1.76-4.76h2c0.182-0.638 0.364-1.28 0.551-1.93 0.377-1.24 0.377-1.24 0.762-2.5 0.244-0.824 0.487-1.65 0.738-2.5 0.313-0.682 0.626-1.36 0.949-2.07 0.99-0.33 1.98-0.66 3-1 1.47-2.07 1.47-2.07 2.79-4.68 0.526-0.982 1.05-1.96 1.59-2.98 0.834-1.59 0.834-1.59 1.68-3.22 0.578-1.09 1.16-2.18 1.75-3.3 1.18-2.22 2.35-4.45 3.52-6.67 1.46-2.78 2.94-5.54 4.42-8.31 5.43-10.1 10.5-20.4 15.3-30.9 0.769-1.65 1.56-3.29 2.35-4.93 3.61-7.53 6.23-15.4 8.93-23.3 1-2.94 2.04-5.85 3.14-8.75 1.77-4.67 3.36-9.4 4.94-14.1l0.931-2.79c2.42-7.31 4.61-14.7 6.63-22.1 0.241-0.844 0.482-1.69 0.73-2.56 3.97-14 7.33-28.2 9.37-42.7 0.81-5.69 0.81-5.69 1.9-6.78 0.435-2.8 0.814-5.58 1.16-8.39 0.107-0.856 0.214-1.71 0.325-2.59 0.227-1.82 0.452-3.64 0.676-5.47 0.337-2.75 0.681-5.49 1.03-8.24 0.221-1.78 0.441-3.55 0.66-5.33 0.101-0.805 0.202-1.61 0.306-2.44 1.5-12.3 2.02-24.6 2.05-36.9 0.00424-1.15 0.00424-1.15 0.00857-2.32 0.0149-4.07 0.0242-8.15 0.0285-12.2 0.00435-3.3 0.0181-6.59 0.041-9.89 0.138-20.3-0.452-40.1-2.93-60.2-0.329-2.71-0.614-5.42-0.89-8.13-0.226-3.6-0.226-3.6-1.47-5.8-0.265-1.59-0.486-3.19-0.684-4.8-0.185-1.44-0.185-1.44-0.373-2.91-0.252-2.02-0.502-4.03-0.75-6.05-0.645-5-1.5-9.48-3.19-14.2-0.399-2.26-0.753-4.54-1.06-6.81-0.226-3.91-0.226-3.91-1.94-7.19-0.66-3.27-1.24-6.55-1.81-9.83-0.751-4.21-1.77-8.12-3.19-12.2-0.615-2.12-1.22-4.25-1.81-6.38-1.52-5.35-3.1-10.7-4.75-16-0.198-0.641-0.395-1.28-0.599-1.94-1.23-3.94-2.61-7.8-4.08-11.7-0.764-2.04-1.48-4.09-2.19-6.14-2.47-7.2-5.03-14.2-8.3-21.1-1.21-2.66-2.29-5.35-3.35-8.07-5.47-14.1-12.7-27.4-19.9-40.7l-1.52-2.82c-1.48-2.73-2.98-5.46-4.48-8.18-0.347-0.631-0.694-1.26-1.05-1.91-1.17-2.12-2.34-4.23-3.51-6.34-0.364-0.662-0.728-1.32-1.1-2.01-2.16-3.86-4.51-7.45-7.13-11-1.19-1.71-2.22-3.44-3.24-5.27-1.97-3.46-4.13-6.62-6.47-9.84-0.891-1.23-1.78-2.46-2.67-3.69-0.463-0.641-0.927-1.28-1.4-1.94-1.44-2.01-2.85-4.04-4.25-6.08-6.8-9.86-14.1-19.2-21.9-28.3-1.32-1.63-1.32-1.63-3.32-4.63h-2c-1-2-2-4-3-6h-2c-0.247-0.557-0.495-1.11-0.75-1.69-1.48-2.74-3.18-4.99-5.25-7.31h-2c-0.331-0.806-0.331-0.806-0.668-1.63-1.78-3.17-4.17-5.67-6.64-8.31-0.474-0.512-0.947-1.02-1.44-1.55-3.91-4.21-7.84-8.33-12.3-12-2.85-2.37-5.38-4.88-8-7.5-2.27-2.19-4.57-4.35-6.88-6.5-0.587-0.556-1.17-1.11-1.78-1.68-3.41-3.19-6.9-5.97-10.7-8.63-2.45-1.81-4.47-4.02-6.61-6.19-2.64-2.29-5.35-4.49-8.06-6.69-0.707-0.581-1.41-1.16-2.14-1.76-0.686-0.558-1.37-1.12-2.08-1.69-0.618-0.502-1.24-1-1.87-1.52-1.87-1.36-3.77-2.33-5.84-3.34-1.02-0.982-2.02-1.98-3-3-7.49-5.65-15.5-10.7-23.3-15.9-2.29-1.52-4.56-3.05-6.84-4.58-5.06-3.37-10.3-6.36-15.6-9.3-4.2-2.33-8.36-4.73-12.5-7.13-1.25-0.71-2.5-1.42-3.75-2.12-0.802-0.454-1.6-0.908-2.43-1.38-6.06-3.37-12.2-6.38-18.6-9.24-2.54-1.16-5.03-2.37-7.52-3.63-2.82-1.41-5.58-2.59-8.5-3.75-1.73-0.783-3.46-1.57-5.19-2.38-10.1-4.61-20.5-8.31-31-12-3.59-1.25-7.16-2.53-10.7-3.86-4.94-1.82-9.96-3.35-15-4.87-2.61-0.801-5.18-1.66-7.75-2.57-3.93-1.34-7.87-2.15-12-2.85-2.36-0.527-2.36-0.527-4.7-1.49-3.3-1.28-6.56-1.89-10-2.54-3.65-0.684-7.19-1.36-10.7-2.46-5.77-1.71-11.8-2.27-17.8-3.1-2.46-0.341-4.91-0.686-7.37-1.04-1.08-0.15-2.16-0.299-3.28-0.453-2.48-0.449-2.48-0.449-3.48-1.45-1.68-0.216-3.37-0.371-5.06-0.5-1.03-0.0825-2.05-0.165-3.11-0.25-1.08-0.0825-2.16-0.165-3.27-0.25-2.12-0.163-4.25-0.329-6.37-0.5-0.947-0.0722-1.89-0.144-2.87-0.219-2.32-0.281-2.32-0.281-4.32-1.28-2.35-0.228-4.67-0.396-7.03-0.52-0.743-0.0409-1.49-0.0818-2.25-0.124-11.1-0.572-22.2-0.819-33.3-1.04-1.17-0.0241-2.33-0.0481-3.53-0.0729-17.7-0.343-35.1-0.108-52.7 1.48z" fill="#FCFDFF"/>
<path transform="translate(698 52.7)" d="m0 0c3.94 0.0114 7.87 0.00462 11.8-0.00689 40.7-0.101 40.7-0.101 58.5 2.27 0.33 0.33 0.66 0.66 1 1 2.5 0.35 4.99 0.643 7.51 0.902 1.56 0.17 3.12 0.34 4.68 0.51 2.46 0.263 4.92 0.524 7.39 0.783 2.37 0.251 4.75 0.51 7.12 0.77 0.726 0.074 1.45 0.148 2.2 0.224 4.55 0.501 8.71 1.49 13.1 2.81 1.54 0.296 3.08 0.561 4.63 0.781 1.21 0.18 1.21 0.18 2.45 0.363 1.66 0.238 3.32 0.475 4.98 0.711 4.53 0.673 8.6 1.64 12.9 3.14 3.8 0.805 7.62 1.51 11.4 2.22 3.09 0.677 5.66 1.57 8.56 2.78 1.99 0.546 3.99 1.06 6 1.56 7.99 2.06 15.9 4.49 23.8 6.94 1.85 0.57 1.85 0.57 3.73 1.15 7.25 2.26 14.4 4.67 21.5 7.35 1.17 0.44 1.17 0.44 2.36 0.888 8.14 3.09 16.2 6.26 24.1 9.95 2.61 1.2 5.25 2.28 7.91 3.35 20.2 8.38 39.8 18.6 58.6 29.8 1.92 1.1 3.83 2.21 5.75 3.31 13.1 7.68 25.8 16 38.2 24.7 0.73 0.509 1.46 1.02 2.21 1.54 10 6.99 19.9 14 29.1 22.1 2.2 1.83 4.53 3.44 6.91 5.03 1.77 1.37 1.77 1.37 4.05 3.65 3.1 3.1 6.38 5.9 9.73 8.72 4.18 3.52 8.16 7.11 12 11 1.74 1.59 3.49 3.17 5.25 4.75 5.47 4.97 10.8 10.1 16 15.3 0.763 0.751 1.53 1.5 2.31 2.27 0.706 0.705 1.41 1.41 2.14 2.14 0.636 0.632 1.27 1.26 1.93 1.91 1.37 1.61 1.37 1.61 1.37 3.61h2c1.41 1.36 1.41 1.36 3.06 3.31 0.924 1.08 0.924 1.08 1.87 2.19 3.02 3.64 6 7.3 8.96 11 2.06 2.54 2.06 2.54 4.38 4.72 1.73 1.8 1.73 1.8 1.73 3.8 0.99 0.33 1.98 0.66 3 1 0.667 1.67 1.33 3.33 2 5 0.99 0.33 1.98 0.66 3 1 0.958 1.37 1.9 2.75 2.79 4.16 1.32 2.02 2.77 3.88 4.27 5.78 10.3 13.1 20 26.7 28.9 40.8 1.71 2.69 3.44 5.36 5.2 8.02 5.64 8.59 11.2 17.1 15.9 26.3 0.932 1.74 1.86 3.49 2.8 5.23 1.02 1.9 2.04 3.81 3.05 5.72 1.5 2.83 3.01 5.65 4.52 8.47 7.05 13.2 7.05 13.2 9.74 19.6 1.01 2.29 2.16 4.48 3.32 6.7 2.58 5.08 4.44 10.3 6.25 15.7 1.27 3.5 2.74 6.84 4.27 10.2 1.76 3.98 3.31 8.04 4.85 12.1 0.343 0.904 0.687 1.81 1.04 2.74 7.57 20.1 13.8 40.7 19.1 61.5 0.278 1.06 0.557 2.12 0.844 3.21 1.48 5.73 2.69 11.4 3.69 17.3 0.516 2.78 1.25 5.48 1.96 8.21 0.91 4.17 1.39 8.4 1.94 12.6 0.404 2.63 0.884 5.1 1.5 7.68 1.34 5.87 2.07 11.8 2.81 17.8 0.241 1.93 0.495 3.86 0.75 5.79 3.06 23.9 3.81 47.8 3.7 71.8-0.0109 2.78-0.0104 5.57-0.01 8.35-6.35e-4 20.7-0.46 41.2-2.87 61.8-0.125 1.09-0.125 1.09-0.253 2.2-1.36 11.8-3.11 23.4-5.12 35.1-0.186 1.08-0.186 1.08-0.375 2.19-1.4 8.08-2.98 16.1-4.88 24.1-0.701 2.95-1.35 5.9-1.99 8.86-1.79 7.79-4.05 15.4-6.28 23.1-1.02 3.51-1.99 7.03-2.91 10.6-1.92 7.11-4.34 14.1-6.72 21-0.711 2.09-1.41 4.17-2.11 6.26-3.09 9.11-6.61 18-10.2 26.9-0.459 1.14-0.918 2.28-1.39 3.45-2.43 5.94-5 11.7-7.97 17.4-1.64 3.3-2.86 6.7-4.08 10.2h-2l-0.375 1.66c-2.04 7.84-5.7 14.5-9.63 21.5-1.42 2.54-2.8 5.11-4.19 7.67-0.934 1.71-1.87 3.42-2.81 5.12-0.362 0.661-0.724 1.32-1.1 2-2.99 5.43-6.11 10.8-9.34 16.1-0.452 0.751-0.904 1.5-1.37 2.28-2.73 4.48-5.64 8.72-8.86 12.9-2.07 2.79-3.66 5.75-5.33 8.8-1.63 2.94-1.63 2.94-3 5h-2c-0.268 0.722-0.536 1.44-0.812 2.19-1.19 2.81-2.46 5.3-4.19 7.81h-2c-0.309 0.99-0.309 0.99-0.625 2-1.58 3.45-3.62 6.15-5.94 9.13-1.21 1.57-2.34 3.21-3.44 4.87h-2c-0.66 1.65-1.32 3.3-2 5h-2c-0.66 1.65-1.32 3.3-2 5h-2c-0.66 1.65-1.32 3.3-2 5h-2c-0.237 0.541-0.474 1.08-0.719 1.64-1.62 2.99-3.63 5.47-5.78 8.11-0.794 0.985-1.59 1.97-2.41 2.98-1.04 1.12-1.04 1.12-2.09 2.27h-2c-0.262 0.579-0.523 1.16-0.793 1.75-3.14 5.84-8.5 10.7-13.2 15.2-0.835 0.897-0.835 0.897-1.69 1.81-1.31 1.19-1.31 1.19-3.31 1.19-0.262 0.589-0.523 1.18-0.793 1.79-1.27 2.33-2.61 3.82-4.52 5.65l-1.88 1.83-1.8 1.73c-0.887 0.887-1.77 1.77-2.69 2.69-0.763 0.763-1.53 1.53-2.31 2.31-1.08 1.14-1.08 1.14-2.19 2.31-1.81 1.69-1.81 1.69-3.81 1.69-0.255 0.592-0.51 1.18-0.773 1.79-1.35 2.43-2.72 3.74-4.85 5.52-0.715 0.605-1.43 1.21-2.17 1.83-0.728 0.612-1.46 1.22-2.21 1.86-1.31 1.16-2.63 2.33-3.94 3.5-12 10.5-12 10.5-15.1 10.5-0.247 0.639-0.495 1.28-0.75 1.94-1.25 2.06-1.25 2.06-3.31 2.62-0.639 0.144-1.28 0.289-1.94 0.438-0.33 0.99-0.66 1.98-1 3-1.33 0.333-2.67 0.667-4 1-0.33 0.99-0.66 1.98-1 3-3.44 3-3.44 3-6 3-0.33 0.99-0.66 1.98-1 3-2.33 1.68-2.33 1.68-5.25 3.44-3.82 2.31-7.3 4.74-10.8 7.56-1.99 1.35-3.99 2.69-6 4-0.887 0.598-1.77 1.2-2.69 1.81-3.81 2.52-7.67 4.96-11.5 7.41-1.87 1.2-3.73 2.42-5.58 3.66-10.4 6.89-21.2 13.3-32.2 19.1-1.45 0.778-2.91 1.56-4.36 2.34-9.75 5.2-19.6 10.1-29.6 14.7l-3.02 1.4c-5.15 2.38-10.3 4.58-15.6 6.64-2.2 0.886-4.35 1.84-6.5 2.83-6.17 2.78-12.5 5.05-18.9 7.39-4.25 1.57-8.49 3.17-12.7 4.77-10.4 3.86-21 7.02-31.8 9.58-3.64 0.874-7 1.99-10.5 3.39-9.79 2.8-19.7 4.8-29.7 6.6-3.66 0.665-7.18 1.37-10.7 2.42-4.57 1.27-9.14 1.86-13.8 2.48-5.14 0.68-10.2 1.37-15.3 2.5-7.39 1.53-14.9 1.95-22.5 2.57-2.28 0.187-4.55 0.376-6.83 0.571-2.04 0.174-4.08 0.342-6.12 0.51-2.86 0.031-2.86 0.031-3.98 1.36-3.23 0.384-6.5 0.434-9.75 0.562-1.05 0.0417-2.1 0.0835-3.18 0.126-21.9 0.766-43.9 0.546-65.8-0.126-0.674-0.0196-1.35-0.0391-2.04-0.0593-1.88-0.0564-3.75-0.121-5.63-0.187-1.06-0.0367-2.12-0.0733-3.21-0.111-2.37-0.205-2.37-0.205-3.37-1.21-1.34-0.204-2.69-0.348-4.04-0.465-1.29-0.115-1.29-0.115-2.6-0.233-0.932-0.0792-1.86-0.158-2.83-0.24-0.951-0.085-1.9-0.17-2.88-0.258-3.05-0.273-6.1-0.539-9.15-0.805-4.01-0.349-8.02-0.704-12-1.06-0.932-0.0792-1.86-0.158-2.83-0.24-1.29-0.115-1.29-0.115-2.6-0.233-0.759-0.0658-1.52-0.132-2.3-0.199-1.75-0.265-1.75-0.265-2.75-1.27-1.85-0.334-3.72-0.613-5.58-0.867-1.16-0.164-2.32-0.327-3.52-0.496-2.43-0.335-4.86-0.669-7.3-1-6.78-0.96-13.3-2.19-20-3.96-2.62-0.668-5.22-1.17-7.89-1.61-10.6-1.85-20.9-4.66-31.1-8.19-2.47-0.804-4.88-1.41-7.43-1.93-3.43-0.708-6.59-1.74-9.86-3.03-3.08-1.17-6.2-2.19-9.33-3.22-12.5-4.15-24.9-8.44-37.1-13.7-1.14-0.485-2.28-0.969-3.46-1.47-11.2-4.75-22.2-9.8-33.2-15l-2.95-1.39c-5.94-2.83-11.7-5.86-17.4-9.11-1.73-0.94-3.46-1.88-5.19-2.81-10.5-5.73-20.8-11.7-30.8-18.2-1.81-1.15-3.62-2.29-5.44-3.44-1.86-1.19-3.71-2.37-5.56-3.56l-3.36-2.15-6.4-4.15-2.24-1.7v-2l-2.21-0.805c-2.78-1.19-4.96-2.56-7.41-4.32-0.856-0.615-1.71-1.23-2.59-1.86-1.38-0.996-1.38-0.996-2.78-2.01l-3.09-2.17-3.03-2.14c-0.931-0.656-1.86-1.31-2.82-1.99l-2.05-1.7v-2l-2.05-0.617c-4-1.87-6.88-4.57-10.1-7.51-1.33-1.18-2.67-2.36-4-3.54l-1.97-1.74c-2.43-2.11-4.94-4.11-7.47-6.1-3.36-2.65-6.38-5.43-9.38-8.5-1.16-1.01-2.33-2.01-3.5-3-4.31-3.66-8.15-7.57-11.8-11.9-3.05-3.55-6.35-6.54-9.99-9.48-1.7-1.64-1.7-1.64-2.68-3.72-0.859-2.07-0.859-2.07-2.89-2.86-2.22-1.11-3.46-2.22-5.14-4.03l-1.6-1.73c-0.808-0.891-0.808-0.891-1.63-1.8l-1.68-1.8c-4.07-4.44-4.07-4.44-4.07-6.7h-2c-1.67-1.81-1.67-1.81-3.75-4.44-0.799-1-1.6-2-2.42-3.03-0.447-0.561-0.893-1.12-1.35-1.7-2.19-2.72-4.42-5.4-6.66-8.08-8.08-9.73-15.8-19.7-23-30.1-1.77-2.54-3.59-5.04-5.41-7.54-5.89-8.13-11.2-16.5-16.5-25.1-0.38-0.625-0.76-1.25-1.15-1.89-2.25-3.7-4.47-7.42-6.68-11.1-1.23-2.07-2.47-4.12-3.7-6.18-4.56-7.62-8.87-15.3-12.8-23.3-1.19-2.44-2.39-4.86-3.63-7.27-4.1-7.99-7.79-16.1-11.2-24.4-1.88-4.56-3.86-9.04-5.99-13.5-3.26-6.93-5.7-14.1-8.17-21.3-1.42-4.07-2.97-8.08-4.5-12.1-3.26-8.57-5.87-17.2-8.15-26.1-0.756-2.74-1.57-5.35-2.5-8.03-1.93-5.7-3.26-11.5-4.63-17.4-0.511-2.17-1.02-4.34-1.54-6.5-0.241-1.03-0.481-2.05-0.729-3.11-0.562-2.36-1.15-4.7-1.76-7.05-1.02-4.2-1.77-8.4-2.48-12.7-0.715-5.21-0.715-5.21-2.44-10.1-0.47-3.41-0.868-6.82-1.25-10.2-0.405-4.01-0.405-4.01-1.75-7.77-0.62-3.79-1-7.62-1.44-11.4l-0.369-3.04c-0.443-3.84-0.831-7.67-1.19-11.5-0.0858-0.9-0.172-1.8-0.26-2.73-1.68-18.2-2.06-36.3-2-54.6 0.0114-3.77 0.00458-7.53-0.00689-11.3-0.0408-15.8 0.237-31.5 2.03-47.3 0.322-2.91 0.564-5.82 0.798-8.73 0.112-1.31 0.112-1.31 0.227-2.66 0.145-1.7 0.285-3.41 0.422-5.11 0.45-5.19 1.24-10.2 2.32-15.3 0.672-3.38 1.04-6.74 1.41-10.2 0.703-6.06 1.81-11.9 3.28-17.8 0.9-3.85 1.6-7.72 2.29-11.6 0.897-4.99 2.03-9.71 3.77-14.5 0.887-2.75 1.43-5.5 1.98-8.34 3.52-17 9.07-33.5 15-49.8 0.685-1.9 1.35-3.81 2.01-5.72 5.38-15.5 11.8-30.8 18.9-45.6 0.929-1.95 1.83-3.91 2.74-5.87 5.01-10.9 10.5-21.4 16.1-32 0.463-0.865 0.926-1.73 1.4-2.62 3.59-6.66 7.4-13.2 11.3-19.6 0.611-1 1.22-2 1.85-3.03 4.94-8.04 10.1-15.9 15.4-23.7 0.385-0.564 0.77-1.13 1.17-1.71 2.58-3.78 5.2-7.54 7.83-11.3 0.621-0.888 1.24-1.78 1.88-2.69 5.53-7.77 11.6-15.1 17.6-22.5 4.48-5.48 8.88-11 13.2-16.6 2.57-3.32 5.3-6.26 8.31-9.19l2.5-3c2.37-2.85 4.88-5.38 7.5-8 1.11-1.29 2.21-2.58 3.31-3.88 3.05-3.54 6.36-6.53 9.91-9.54 2.22-1.98 3.92-4.26 5.77-6.59 1.73-1.56 3.5-3.05 5.29-4.54 1.86-1.55 1.86-1.55 4.02-3.77 5.91-5.91 12.2-11.4 18.7-16.7 1.31-1.16 2.63-2.33 3.94-3.5 2.54-2.24 5.1-4.31 7.88-6.25 2.98-1.97 2.98-1.97 4.51-3.58 5.01-5 10.8-9.01 16.6-13.1 4.46-3.19 8.91-6.39 13.3-9.7 3.4-2.56 6.87-4.89 10.5-7.17 1.22-0.776 2.44-1.55 3.66-2.33 0.615-0.39 1.23-0.78 1.86-1.18 1.8-1.15 3.59-2.31 5.37-3.47 6.98-4.55 14-8.82 21.3-12.9 3.15-1.82 6.14-3.8 9.16-5.82 1.99-1.02 3.99-2.02 6-3 1.42-0.785 2.84-1.58 4.25-2.38 3.93-2.19 7.9-4.24 11.9-6.23 2.11-1.04 4.21-2.1 6.31-3.16 0.61-0.308 1.22-0.615 1.85-0.932 1.75-0.884 3.5-1.77 5.26-2.65 5.37-2.61 10.9-4.86 16.4-7.15 3.17-1.32 6.34-2.65 9.5-4 12.5-5.37 25.1-10.5 38-14.7 3.77-1.23 7.49-2.54 11.2-3.93 5.34-1.96 10.7-3.45 16.2-4.88 2.52-0.665 5.04-1.33 7.56-2 0.969-0.256 0.969-0.256 1.96-0.517 3.54-0.942 7.05-1.95 10.5-3.05 5.08-1.56 10.2-2.63 15.4-3.69 2.45-0.523 4.88-1.11 7.3-1.74 5.51-1.4 11.1-2.13 16.7-2.95 0.818-0.123 1.64-0.246 2.48-0.373 0.74-0.108 1.48-0.215 2.24-0.326 1.75-0.197 1.75-0.197 2.73-1.36 2.5-0.361 4.99-0.667 7.5-0.938 0.751-0.085 1.5-0.17 2.28-0.258 3.23-0.365 6.45-0.72 9.68-1.08 2.35-0.261 4.7-0.526 7.05-0.792 0.735-0.0792 1.47-0.158 2.23-0.24 3.43-0.124 3.43-0.124 6.27-1.7 19.7-2.74 39.9-2.32 59.7-2.26zm-11.7 13.3c-2.82 0.204-5.63 0.354-8.46 0.465-1.77 0.0787-3.54 0.158-5.31 0.236-2.77 0.118-5.54 0.234-8.31 0.348-10.1 0.424-20.1 0.971-30.2 1.95-1.29 0.124-1.29 0.124-2.61 0.251-3.87 0.0689-3.87 0.0689-7.1 1.75-2.14 0.347-4.29 0.637-6.45 0.902-1.34 0.17-2.67 0.34-4.01 0.51-2.11 0.263-4.22 0.524-6.33 0.783-2.03 0.251-4.07 0.51-6.1 0.77-1.83 0.226-1.83 0.226-3.69 0.457-3.32 0.561-6.25 1.48-9.42 2.58-1.45 0.301-2.91 0.565-4.38 0.781-1.16 0.18-1.16 0.18-2.35 0.363-1.6 0.238-3.21 0.475-4.81 0.711-0.772 0.12-1.54 0.24-2.34 0.363-0.695 0.102-1.39 0.205-2.11 0.311-2.23 0.521-3.98 1.44-6.01 2.47-2.59 0.535-5.15 1.01-7.75 1.44-5.74 1-10.9 2.39-16.2 4.56-2.17 0.522-4.34 0.97-6.53 1.38-2.86 0.724-5.56 1.76-8.31 2.81-3.56 1.34-7.17 2.5-10.8 3.69-15.3 5.02-15.3 5.02-30.2 11.2-4.75 2.14-9.63 4.01-14.5 5.86-6.29 2.42-12.3 5.35-18.2 8.42-2.38 1.18-4.72 2.27-7.16 3.3-3.18 1.27-3.18 1.27-5.73 2.88-2.5 1.5-2.5 1.5-5.54 2.76-4.77 2.02-9.25 4.54-13.8 7.05-0.889 0.491-1.78 0.983-2.69 1.49-5.2 2.89-10.3 5.83-15.4 8.94-2.16 1.3-4.36 2.5-6.58 3.69-4.18 2.3-8.02 4.97-11.9 7.74-2.65 1.86-5.36 3.6-8.1 5.32-6.18 3.9-12.3 7.93-18 12.5-4.95 3.96-10.2 7.49-15.5 11v2c-0.598 0.103-1.2 0.206-1.81 0.312-2.56 0.805-3.38 1.73-5.19 3.69-1.66 1.34-3.33 2.67-5 4-2.7 2.21-5.39 4.42-8.09 6.63-2.71 2.2-5.47 4.35-8.23 6.49-3.5 2.78-6.28 5.62-9.07 9.1-2 2.19-4.21 3.9-6.56 5.71-4.65 3.6-8.3 7.56-12.1 12.1-2.84 2.98-5.79 5.67-8.94 8.31-3.46 2.98-6.07 6.15-8.7 9.86-1.87 2.53-4.14 4.61-6.36 6.83-1.79 2.24-3.53 4.52-5.25 6.82-1.75 2.18-1.75 2.18-3.96 4.34-2.02 1.66-2.02 1.66-1.79 3.85-0.99 0.33-1.98 0.66-3 1-1.95 2.08-1.95 2.08-3.88 4.62-0.699 0.9-1.4 1.8-2.12 2.73-0.663 0.874-1.33 1.75-2.01 2.65-0.539 0.709-1.08 1.42-1.63 2.15-2.53 3.1-2.53 3.1-3.37 6.85-0.99 0.33-1.98 0.66-3 1-0.702 1.32-1.37 2.65-2 4-0.445 0.438-0.889 0.877-1.35 1.33-1.99 2.02-3.49 4.2-5.09 6.55-2.41 3.49-4.92 6.82-7.56 10.1-1.01 1.66-2.01 3.33-3 5-1.75 2.77-3.52 5.52-5.28 8.28-0.567 0.897-1.13 1.79-1.72 2.72-0.567 0.897-1.13 1.79-1.72 2.72-1.44 2.14-1.44 2.14-1.28 4.28h-2l-1.14 2.09c-1.62 2.97-3.24 5.94-4.86 8.91-0.383 0.705-0.766 1.41-1.16 2.14-1.96 3.58-3.98 7.11-6.09 10.6-5.54 9.2-10.4 18.5-14.8 28.3-1.45 3.12-3 6.18-4.55 9.25-6.98 13.9-12.8 27.9-17.8 42.5-1.27 3.68-2.55 7.33-4.12 10.9-4.34 10.1-7.22 20.8-10.2 31.3-0.989 3.41-2.08 6.78-3.18 10.2-2.77 8.9-4.52 18.1-6.43 27.2-0.546 2.59-1.09 5.17-1.65 7.76-0.153 0.711-0.305 1.42-0.462 2.15-0.452 1.77-0.452 1.77-1.45 3.77-0.275 1.57-0.509 3.14-0.719 4.72-0.191 1.4-0.191 1.4-0.387 2.82l-0.395 2.96c-0.257 1.93-0.517 3.85-0.781 5.78-0.114 0.857-0.228 1.71-0.346 2.6-0.373 2.12-0.373 2.12-1.37 4.12-0.281 2.16-0.512 4.33-0.719 6.5-0.128 1.3-0.255 2.59-0.387 3.93-0.199 2.07-0.396 4.14-0.592 6.21-0.191 2-0.387 3.99-0.583 5.98-0.114 1.2-0.228 2.39-0.346 3.63-0.373 2.74-0.373 2.74-1.37 3.74-0.57 4.5-0.786 9.04-1.06 13.6-0.0445 0.718-0.089 1.44-0.135 2.18-0.938 15.8-0.995 31.5-0.99 47.3-8.16e-4 1.21-0.00163 2.41-0.00247 3.66 0.00147 19.3 0.827 38.2 2.86 57.4 0.266 2.51 0.522 5.03 0.777 7.54 0.171 1.63 0.342 3.26 0.514 4.88 0.074 0.737 0.148 1.47 0.224 2.23 0.533 4.9 1.57 9.49 2.81 14.3 0.352 2.58 0.665 5.16 0.938 7.75 0.681 6.04 1.81 11.8 3.41 17.6 0.594 2.37 0.965 4.63 1.22 7.06 0.404 3.29 1.2 5.53 2.44 8.56 0.333 2.33 0.667 4.67 1 7l0.922 2.28c1.27 3.22 2.03 6.42 2.83 9.79 2.18 8.99 4.83 17.8 7.55 26.6 0.635 2.08 1.26 4.16 1.87 6.24l1.02 3.43c0.282 0.956 0.565 1.91 0.855 2.9 1.07 3.06 2.49 5.84 3.96 8.73 0.473 1.3 0.914 2.61 1.31 3.94 1.97 6.13 4.44 12.1 6.86 18 0.591 1.46 1.17 2.93 1.75 4.4 2.35 5.96 4.87 11.8 7.51 17.7 0.394 0.873 0.788 1.75 1.19 2.65 2.66 5.86 5.41 11.6 8.37 17.4l1.5 3.06c1.63 3.2 3.37 6.33 5.12 9.47 1.42 2.54 2.8 5.1 4.19 7.66 7.66 14.1 7.66 14.1 16.5 27.4 1.63 2.36 3.01 4.81 4.42 7.32 2.6 4.38 5.53 8.55 8.41 12.8 0.664 0.972 1.33 1.94 2.01 2.95 4.27 6.23 8.65 12.3 13.3 18.3 1.54 2.05 1.54 2.05 2.54 4.05h2c0.251 0.548 0.503 1.1 0.762 1.66 1.47 2.78 3.2 5.23 5.05 7.78 0.666 0.927 1.33 1.85 2.02 2.81 2.22 2.81 4.62 5.24 7.17 7.75 1.48 1.75 2.94 3.52 4.38 5.31 2.83 3.48 5.65 6.96 8.56 10.4 0.545 0.643 1.09 1.29 1.65 1.95 1.32 1.59 1.32 1.59 3.41 1.36 0.276 0.592 0.552 1.18 0.836 1.79 3.14 5.96 8.28 10.3 13.4 14.6 2.23 2 3.96 4.28 5.81 6.62 1.98 1.69 3.98 3.35 6 5 2.44 2.38 4.81 4.81 7.19 7.25 11.7 12.3 11.7 12.3 25.8 20.8 0.33 0.99 0.66 1.98 1 3 2.07 1.75 2.07 1.75 4.69 3.5 4.57 3.23 9 6.58 13.4 10.1 4.61 3.65 9.26 7.17 14.1 10.5 2.32 1.6 4.62 3.22 6.91 4.87 0.738 0.527 1.48 1.05 2.24 1.6 1.46 1.04 2.91 2.09 4.36 3.13 4.22 3.01 8.51 5.61 13.1 8.07 2.3 1.3 4.47 2.72 6.66 4.21 4.95 3.36 10.1 6.32 15.3 9.26l2.76 1.58c4.46 2.54 8.93 4.99 13.6 7.24 1.3 0.647 2.6 1.3 3.89 1.95l2.06 1.03c1.96 0.982 3.92 1.97 5.87 2.96 12.2 6.15 24.5 11.9 37.2 17.1 1.98 0.833 3.96 1.67 5.94 2.5 9.8 4.08 19.7 7.78 29.7 11.3 3 1.07 5.99 2.19 8.97 3.32 4.75 1.74 9.54 2.99 14.5 4.16 2.74 0.675 5.41 1.45 8.1 2.28 3.87 1.19 7.73 2.13 11.7 2.91 2.11 0.527 2.11 0.527 4.37 1.49 3.48 1.32 7.02 1.92 10.7 2.54 7.34 1.25 7.34 1.25 10.9 2.5 4.46 1.42 8.96 1.91 13.6 2.5 9.7 1.24 9.7 1.24 13.9 2.5 5.6 1.53 11.3 1.97 17.1 2.57 2.36 0.247 4.72 0.498 7.09 0.754 1.04 0.108 2.08 0.215 3.15 0.326 2.39 0.357 2.39 0.357 3.39 1.36 4.35 0.578 8.75 0.791 13.1 1.06 0.712 0.0442 1.42 0.0884 2.16 0.134 59.3 6.41 59.3 6.41 116-2.2 2.53-0.353 5.06-0.662 7.6-0.938 1.54-0.174 3.08-0.349 4.62-0.523 2.43-0.271 4.86-0.541 7.3-0.81 2.34-0.26 4.68-0.526 7.03-0.792 0.732-0.0792 1.46-0.158 2.22-0.24 3.42-0.127 3.42-0.127 6.25-1.7 1.63-0.333 3.28-0.612 4.93-0.867 1.53-0.243 1.53-0.243 3.09-0.491 1.09-0.171 2.18-0.341 3.3-0.517 8.37-1.35 16.5-2.89 24.7-5.12 1.41-0.322 2.83-0.635 4.25-0.938 13.6-2.91 13.6-2.91 26.8-7.35 3.53-1.27 7.2-2.04 10.9-2.87 3.06-0.826 5.97-1.87 8.93-3.01 2.36-0.893 4.73-1.73 7.11-2.55 0.845-0.293 1.69-0.585 2.56-0.887 1.73-0.598 3.46-1.19 5.2-1.79 4.88-1.69 9.61-3.53 14.3-5.61 1.62-0.652 3.25-1.3 4.88-1.94 4-1.59 7.93-3.3 11.9-5.07 2.34-1.02 4.7-1.95 7.08-2.87 4.71-1.87 9.18-4.07 13.7-6.38 2.57-1.28 5.14-2.51 7.75-3.71 15.9-7.3 31-15.9 45.8-25.2 2.05-1.28 4.12-2.55 6.19-3.8 11.7-7.09 22.8-15 33.8-23.1 2.83-2.05 5.66-4.1 8.49-6.14 5.32-3.94 10.4-8.2 15.5-12.4 2.05-1.67 4.1-3.33 6.16-4.97l3.03-2.42c0.922-0.731 1.84-1.46 2.79-2.21 0.666-0.61 1.33-1.22 2.02-1.85v-2c1.1-0.365 1.1-0.365 2.23-0.738 3.1-1.41 4.75-2.97 7.08-5.45 2.86-2.97 5.73-5.78 8.88-8.44 3.18-2.72 5.84-5.64 8.49-8.87 1.58-1.8 3.4-3.1 5.32-4.5v-2c0.874-0.365 0.874-0.365 1.77-0.738 2.62-1.48 4.06-3.14 5.98-5.45 2.54-2.95 5.03-5.56 8.06-8 3.9-3.29 6.98-7.07 10.1-11.1 0.485-0.615 0.97-1.23 1.47-1.86 2.01-2.61 3.54-4.74 4.59-7.89 1.33-0.671 2.66-1.34 4-2 1.7-1.82 1.7-1.82 3.25-4 2.51-3.34 5.05-6.63 7.69-9.88 4.21-5.25 8.15-10.7 12.1-16.1 0.803-1.11 1.61-2.21 2.41-3.32 5.38-7.42 10.5-15 15.4-22.7 0.933-1.47 1.87-2.94 2.82-4.41 4.28-6.67 8.37-13.4 12.4-20.3 0.612-1.05 1.22-2.11 1.85-3.19 10.8-18.6 20.2-37.8 28.4-57.7 1.22-2.95 2.49-5.88 3.81-8.79 2.16-4.84 4.08-9.75 5.95-14.7 0.347-0.914 0.694-1.83 1.05-2.77 2.88-7.64 5.51-15.3 8.01-23.1 0.56-1.71 1.12-3.42 1.69-5.12 0.21-0.642 0.42-1.28 0.637-1.95 0.505-1.44 1.07-2.86 1.66-4.27 1.14-3 1.83-5.96 2.51-9.1 0.934-4.3 2.06-8.4 3.5-12.6 1.97-6.03 3.31-11.7 4-18 0.33-0.33 0.66-0.66 1-1 0.481-2.24 0.907-4.49 1.31-6.75 0.269-1.49 0.538-2.98 0.809-4.47 0.214-1.18 0.214-1.18 0.433-2.39 0.427-2.29 0.885-4.58 1.36-6.86 5.41-26.6 8.69-53.5 10.1-80.5l0.171-3.09c1.08-19.7 0.737-39.2-0.358-58.9-0.0636-1.16-0.127-2.32-0.193-3.51-0.881-15.7-2.13-31.2-4.18-46.7-0.106-0.802-0.211-1.6-0.32-2.43-0.946-7.06-1.93-14.1-3.6-21-1.5-6.63-2.56-13.4-3.75-20-0.213-1.17-0.427-2.35-0.646-3.56-0.287-1.6-0.287-1.6-0.58-3.24-0.296-2.38-0.296-2.38-1.54-3.45-0.308-1.35-0.57-2.7-0.812-4.06-0.92-4.79-2.01-9.52-3.19-14.2-0.249-1.02-0.249-1.02-0.503-2.06-0.919-3.68-2.02-7.13-3.5-10.6-1.02-3.32-1.91-6.63-2.72-10-0.257-1.07-0.513-2.14-0.777-3.24-0.237-1.02-0.474-2.03-0.719-3.08-0.693-2.86-0.693-2.86-2.78-5.67-0.506-1.48-0.961-2.99-1.38-4.5-1.62-5.61-3.55-11.1-5.56-16.6-0.335-0.929-0.669-1.86-1.01-2.81-2.12-5.82-4.45-11.5-7.05-17.1-0.455-0.991-0.91-1.98-1.38-3-0.791-1.71-1.58-3.42-2.38-5.12-0.973-2.24-1.84-4.46-2.68-6.75-1.46-3.94-3.22-7.69-5.13-11.4-0.341-0.674-0.682-1.35-1.03-2.04-7.57-14.9-15.2-29.9-23.9-44.2-1.11-1.85-2.19-3.73-3.25-5.61-7.26-12.7-15.4-25.2-24.2-36.9-1.14-1.53-2.29-3.07-3.43-4.61-14.5-19.5-14.5-19.5-30.4-37.9-2.51-2.79-4.71-5.72-6.91-8.75-2.7-3.56-5.04-6.3-9.3-7.72-0.247-0.722-0.495-1.44-0.75-2.19-1.53-3.44-3.44-4.83-6.33-7.15-2.01-1.74-3.65-3.57-5.36-5.6-2.93-3.45-6.08-6.36-9.53-9.28-2.11-1.85-4.07-3.78-6.04-5.78-4.67-4.74-9.62-9.09-14.8-13.2-2.19-1.75-2.19-1.75-3.52-3.11-18.1-17.9-40.8-32.6-62-46.5-1.62-1.07-3.24-2.16-4.85-3.25-2.22-1.46-4.41-2.79-6.75-4.04-4.19-2.29-8.29-4.72-12.4-7.19-0.65-0.391-1.3-0.781-1.97-1.18-2.92-1.76-5.84-3.52-8.75-5.3-7.03-4.23-14.3-7.73-21.7-11.2-3.93-1.82-7.82-3.72-11.7-5.67-1.13-0.566-2.25-1.13-3.41-1.71-1.98-1-3.95-2.02-5.92-3.04-4.53-2.34-8.94-4.23-13.8-5.75-3.95-1.33-7.75-3-11.6-4.62-6.93-2.91-14-5.35-21.1-7.86-2.44-0.868-4.88-1.74-7.31-2.62-3.47-1.25-6.93-2.48-10.4-3.71l-3.09-1.1c-6.23-2.15-12.5-3.82-18.9-5.19-3.01-0.711-3.01-0.711-5.95-1.7-3.33-1.1-6.62-1.82-10.1-2.51-3.39-0.684-6.64-1.38-9.91-2.5-3.78-1.23-7.54-1.87-11.5-2.5-4.19-0.686-8.28-1.41-12.4-2.5-5.47-1.42-11.1-1.93-16.7-2.57-2.17-0.247-4.33-0.499-6.5-0.754-0.949-0.108-1.9-0.215-2.88-0.326-2.19-0.357-2.19-0.357-3.19-1.36-2.73-0.391-5.44-0.717-8.18-0.996-0.845-0.0874-1.69-0.175-2.56-0.265-10.1-0.989-20.2-1.4-30.3-1.8-2.85-0.116-5.7-0.234-8.54-0.357-1.75-0.0757-3.5-0.147-5.25-0.214-5.92-0.254-5.92-0.254-8.14-1.37-2.23-0.0977-4.46-0.131-6.69-0.133-0.658-9.57e-4 -1.32-0.00191-1.99-0.0029-1.39-6.81e-4 -2.78 0.00117-4.18 0.00534-2.13 0.00535-4.27 5.1e-5 -6.4-0.00635-1.35 6.61e-4 -2.7 0.00194-4.05 0.00391-1.23 0.00113-2.47 0.00226-3.74 0.00342-2.88-0.0743-2.88-0.0743-4.95 1.13z" fill="#000002"/>
<path transform="translate(633 413)" d="m0 0c1.41 1.13e-4 1.41 1.13e-4 2.85 2.29e-4 1.01 0.00516 2.01 0.0103 3.05 0.0156 1.04 0.00141 2.08 0.00283 3.14 0.00429 3.31 0.00559 6.62 0.0181 9.93 0.0309 2.25 0.00502 4.49 0.00958 6.74 0.0137 5.5 0.011 11 0.0278 16.5 0.0488 1.55 3.09 1.13 6.35 1.12 9.74 0.00115 0.813 0.00231 1.63 0.0035 2.46 0.00267 2.75-0.00186 5.51-0.00629 8.26 4.36e-4 1.98 0.00131 3.96 0.00259 5.94 0.00225 5.47-0.00178 10.9-0.00678 16.4-0.0043 5.89-0.00286 11.8-0.0021 17.7 5.6e-4 10.9-0.00334 21.8-0.00934 32.6-0.0055 10-0.00873 20.1-0.00975 30.1-6.87e-5 0.665-1.37e-4 1.33-2.08e-4 2.02-3.38e-4 3.38-6.4e-4 6.76-9.27e-4 10.1-0.0021 23.9-0.00884 47.9-0.0183 71.8-0.00918 23.3-0.0163 46.5-0.0205 69.8-1.97e-4 1.08-1.97e-4 1.08-3.99e-4 2.17-0.00132 7.2-0.00259 14.4-0.00384 21.6-0.00254 14.7-0.00536 29.3-0.00835 44-2.06e-4 1.01-2.06e-4 1.01-4.16e-4 2.04-0.0092 45.1-0.0251 90.1-0.0419 135-7.37 0.0253-14.7 0.0428-22.1 0.0549-2.51 0.00504-5.02 0.0119-7.53 0.0205-3.6 0.0121-7.2 0.0178-10.8 0.0222-1.69 0.00774-1.69 0.00774-3.42 0.0156-1.04 7.55e-5 -2.08 1.51e-4 -3.15 2.29e-4 -0.919 0.00222-1.84 0.00444-2.79 0.00673-2.21-0.12-2.21-0.12-4.21-1.12-0.0342-45.5-0.0661-91.1-0.0847-137-2.76e-4 -0.674-5.52e-4 -1.35-8.37e-4 -2.04-0.00599-14.6-0.0115-29.3-0.0166-43.9-0.00249-7.18-0.00509-14.4-0.00773-21.5-2.62e-4 -0.714-5.23e-4 -1.43-7.92e-4 -2.16-0.00853-23.2-0.0236-46.3-0.0419-69.5-0.0188-23.8-0.0312-47.6-0.0352-71.4-5.76e-4 -3.36-0.00123-6.72-0.00192-10.1-1.35e-4 -0.661-2.7e-4 -1.32-4.09e-4 -2-0.00251-11.3-0.0132-22.6-0.0257-34-0.0105-10-0.0138-20.1-0.0112-30.1 0.00129-5.8-7.49e-4 -11.6-0.0114-17.4-0.00967-5.31-0.0103-10.6-0.00339-15.9 8.51e-4 -1.93-0.00174-3.85-0.00797-5.78-0.00794-2.6-0.00376-5.21 0.00367-7.81-0.00525-0.762-0.0105-1.52-0.0159-2.31 0.0337-5.17 0.0337-5.17 2.26-7.4 2.95-0.998 5.67-1.12 8.77-1.11z" fill="#FCFDFF"/>
<path transform="translate(776 413)" d="m0 0c1.63-0.0473 3.26 0.00632 4.89 0.0793 2.51 2.51 2.24 4.01 2.26 7.42-0.00525 0.765-0.0105 1.53-0.0159 2.32 0.00231 0.813 0.00462 1.63 0.00699 2.46 0.00534 2.75-0.00372 5.51-0.0126 8.26 8.71e-4 1.98 0.00262 3.96 0.00518 5.94 0.00449 5.47-0.00356 10.9-0.0136 16.4-0.0086 5.89-0.00572 11.8-0.0042 17.7 0.00112 10.9-0.00668 21.8-0.0187 32.6-0.011 10-0.0175 20.1-0.0195 30.1-1.37e-4 0.665-2.75e-4 1.33-4.17e-4 2.02-6.77e-4 3.38-0.00128 6.76-0.00185 10.1-0.0042 23.9-0.0177 47.9-0.0366 71.8-0.0184 23.3-0.0325 46.5-0.041 69.8-2.63e-4 0.717-5.26e-4 1.43-7.97e-4 2.17-0.00264 7.2-0.00519 14.4-0.00768 21.6-0.00507 14.7-0.0107 29.3-0.0167 44-2.75e-4 0.674-5.49e-4 1.35-8.32e-4 2.04-0.0184 45.1-0.0501 90.1-0.0839 135-7.37 0.0253-14.7 0.0428-22.1 0.0549-2.51 0.00504-5.02 0.0119-7.53 0.0205-3.6 0.0121-7.2 0.0178-10.8 0.0222-1.69 0.00774-1.69 0.00774-3.42 0.0156-1.04 7.55e-5 -2.08 1.51e-4 -3.15 2.29e-4 -0.919 0.00222-1.84 0.00444-2.79 0.00673-2.21-0.12-2.21-0.12-4.21-1.12-0.0342-45.5-0.0661-91.1-0.0847-137-2.76e-4 -0.674-5.52e-4 -1.35-8.37e-4 -2.04-0.00599-14.6-0.0115-29.3-0.0166-43.9-0.00249-7.18-0.00509-14.4-0.00773-21.5-2.62e-4 -0.714-5.23e-4 -1.43-7.92e-4 -2.16-0.00853-23.2-0.0236-46.3-0.0419-69.5-0.0188-23.8-0.0312-47.6-0.0352-71.4-5.76e-4 -3.36-0.00123-6.72-0.00192-10.1-1.35e-4 -0.661-2.7e-4 -1.32-4.09e-4 -2-0.00251-11.3-0.0132-22.6-0.0257-34-0.0105-10-0.0138-20.1-0.0112-30.1 0.00129-5.8-7.49e-4 -11.6-0.0114-17.4-0.00967-5.31-0.0103-10.6-0.00339-15.9 8.51e-4 -1.93-0.00174-3.85-0.00797-5.78-0.00794-2.6-0.00376-5.21 0.00367-7.81-0.00525-0.762-0.0105-1.52-0.0159-2.31 0.0337-5.17 0.0337-5.17 2.26-7.4 1.83-0.278 1.83-0.278 4.06-0.319 1.26-0.0298 1.26-0.0298 2.54-0.0602 0.908-0.0116 1.82-0.0231 2.75-0.035 1.4-0.029 1.4-0.029 2.83-0.0587 3-0.0599 6-0.106 9-0.152 2-0.0382 4.01-0.0772 6.01-0.117 9.15-0.176 9.15-0.176 13.5-0.225 1.46-0.0211 2.92-0.0573 4.38-0.112z" fill="#FCFDFF"/>
<path transform="translate(519 467)" d="m0 0c1.35 0.00214 1.35 0.00214 2.72 0.00432 1.02-0.00308 2.04-0.00615 3.08-0.00932 1.65 0.0108 1.65 0.0108 3.34 0.0218 1.13 4.58e-4 2.25 9.16e-4 3.41 0.00139 2.38 0.00302 4.77 0.0109 7.15 0.0233 3.67 0.0183 7.33 0.0205 11 0.0203 2.31 0.00492 4.62 0.0107 6.94 0.0176 1.1 0.00111 2.21 0.00223 3.35 0.00337 1.52 0.00957 1.52 0.00957 3.07 0.0193 0.898 0.00381 1.8 0.00762 2.72 0.0116 2.04 0.134 2.04 0.134 3.04 1.13 0.0978 1.98 0.124 3.97 0.123 5.95 0.00199 1.3 0.00398 2.6 0.00603 3.94-0.00285 1.46-0.0058 2.93-0.00883 4.39 4.36e-4 1.54 0.00131 3.08 0.00259 4.62 0.00225 4.25-0.00178 8.5-0.00678 12.8-0.0043 4.58-0.00286 9.15-0.0021 13.7 5.26e-4 7.94-0.00262 15.9-0.00824 23.8-0.00811 11.5-0.0107 22.9-0.012 34.4-0.00219 18.6-0.00885 37.2-0.0183 55.8-0.00917 18.1-0.0163 36.2-0.0205 54.3-2.63e-4 1.11-5.25e-4 2.23-7.96e-4 3.38-0.0013 5.59-0.00257 11.2-0.00381 16.8-0.0104 46.4-0.028 92.8-0.0503 139-7.53 0.0253-15.1 0.0428-22.6 0.0549-2.56 0.00504-5.13 0.0119-7.69 0.0205-3.68 0.0121-7.35 0.0178-11 0.0222-1.15 0.00516-2.31 0.0103-3.5 0.0156-1.06 7.55e-5 -2.12 1.51e-4 -3.22 2.29e-4 -0.939 0.00222-1.88 0.00444-2.85 0.00673-2.13-0.12-2.13-0.12-3.13-1.12-0.0996-1.97-0.127-3.94-0.129-5.91-0.00322-1.29-0.00645-2.59-0.00977-3.92 0.00147-1.45 0.00304-2.91 0.00469-4.36-0.00187-1.53-0.00417-3.06-0.00687-4.59-0.00615-4.22-0.00598-8.45-0.00481-12.7 2.03e-4 -4.55-0.00531-9.09-0.0101-13.6-0.00832-8.92-0.0111-17.8-0.0116-26.8-4.74e-4 -7.24-0.00252-14.5-0.0057-21.7-0.00881-20.5-0.0134-41-0.0127-61.5 4e-5 -1.11 7.99e-5 -2.21 1.21e-4 -3.35 4.09e-5 -1.11 8.18e-5 -2.22 1.24e-4 -3.36 4.07e-4 -18-0.00917-35.9-0.0233-53.9-0.0143-18.4-0.0213-36.9-0.0204-55.3 3.33e-4 -10.4-0.00245-20.7-0.0132-31.1-0.00908-8.82-0.0113-17.6-0.00449-26.5 0.00328-4.5 0.00327-9-0.00535-13.5-0.0078-4.12-0.0065-8.23 0.00228-12.3 0.00155-1.49-3.32e-4 -2.99-0.00586-4.48-0.00698-2.02-6.16e-4 -4.04 0.00656-6.06-2.17e-4 -1.13-4.35e-4 -2.25-6.59e-4 -3.41 0.316-3.32 1.02-4.49 4.42-4.87z" fill="#FCFDFF"/>
<path transform="translate(840 467)" d="m0 0c1.35 0.00214 1.35 0.00214 2.72 0.00432 1.02-0.00308 2.04-0.00615 3.08-0.00932 1.65 0.0108 1.65 0.0108 3.34 0.0218 1.13 4.58e-4 2.25 9.16e-4 3.41 0.00139 2.38 0.00302 4.77 0.0109 7.15 0.0233 3.67 0.0183 7.33 0.0205 11 0.0203 2.31 0.00492 4.62 0.0107 6.94 0.0176 1.1 0.00111 2.21 0.00223 3.35 0.00337 1.52 0.00957 1.52 0.00957 3.07 0.0193 0.898 0.00381 1.8 0.00762 2.72 0.0116 2.04 0.134 2.04 0.134 3.04 1.13 0.0978 1.98 0.124 3.97 0.123 5.95 0.00199 1.3 0.00398 2.6 0.00603 3.94-0.00285 1.46-0.0058 2.93-0.00883 4.39 4.36e-4 1.54 0.00131 3.08 0.00259 4.62 0.00225 4.25-0.00178 8.5-0.00678 12.8-0.0043 4.58-0.00286 9.15-0.0021 13.7 5.26e-4 7.94-0.00262 15.9-0.00824 23.8-0.00811 11.5-0.0107 22.9-0.012 34.4-0.00219 18.6-0.00885 37.2-0.0183 55.8-0.00917 18.1-0.0163 36.2-0.0205 54.3-2.63e-4 1.11-5.25e-4 2.23-7.96e-4 3.38-0.0013 5.59-0.00257 11.2-0.00381 16.8-0.0104 46.4-0.028 92.8-0.0503 139-7.53 0.0253-15.1 0.0428-22.6 0.0549-2.56 0.00504-5.13 0.0119-7.69 0.0205-3.68 0.0121-7.35 0.0178-11 0.0222-1.15 0.00516-2.31 0.0103-3.5 0.0156-1.06 7.55e-5 -2.12 1.51e-4 -3.22 2.29e-4 -0.939 0.00222-1.88 0.00444-2.85 0.00673-2.13-0.12-2.13-0.12-3.13-1.12-0.0996-1.97-0.127-3.94-0.129-5.91-0.00322-1.29-0.00645-2.59-0.00977-3.92 0.00147-1.45 0.00304-2.91 0.00469-4.36-0.00187-1.53-0.00417-3.06-0.00687-4.59-0.00615-4.22-0.00598-8.45-0.00481-12.7 2.03e-4 -4.55-0.00531-9.09-0.0101-13.6-0.00832-8.92-0.0111-17.8-0.0116-26.8-4.74e-4 -7.24-0.00252-14.5-0.0057-21.7-0.00881-20.5-0.0134-41-0.0127-61.5 4e-5 -1.11 7.99e-5 -2.21 1.21e-4 -3.35 4.09e-5 -1.11 8.18e-5 -2.22 1.24e-4 -3.36 4.07e-4 -18-0.00917-35.9-0.0233-53.9-0.0143-18.4-0.0213-36.9-0.0204-55.3 3.33e-4 -10.4-0.00245-20.7-0.0132-31.1-0.00908-8.82-0.0113-17.6-0.00449-26.5 0.00328-4.5 0.00327-9-0.00535-13.5-0.0078-4.12-0.0065-8.23 0.00228-12.3 0.00155-1.49-3.32e-4 -2.99-0.00586-4.48-0.00698-2.02-6.16e-4 -4.04 0.00656-6.06-2.17e-4 -1.13-4.35e-4 -2.25-6.59e-4 -3.41 0.316-3.32 1.02-4.49 4.42-4.87z" fill="#FCFDFF"/>
<path transform="translate(947 534)" d="m0 0c1.35 0.00214 1.35 0.00214 2.72 0.00432 1.02-0.00308 2.04-0.00615 3.08-0.00932 1.65 0.0108 1.65 0.0108 3.34 0.0218 1.13 4.58e-4 2.25 9.16e-4 3.41 0.00139 2.38 0.00302 4.77 0.0109 7.15 0.0233 3.67 0.0183 7.33 0.0205 11 0.0203 2.31 0.00492 4.62 0.0107 6.94 0.0176 1.1 0.00111 2.21 0.00223 3.35 0.00337 1.52 0.00957 1.52 0.00957 3.07 0.0193 0.898 0.00381 1.8 0.00762 2.72 0.0116 2.04 0.134 2.04 0.134 3.04 1.13 0.098 3.08 0.13 6.15 0.12 9.23 8.54e-4 0.981 0.00171 1.96 0.00259 2.97 0.00166 3.31-0.00387 6.63-0.00932 9.94-2.82e-4 2.36-1.24e-4 4.73 4.43e-4 7.09 2.58e-4 5.77-0.00409 11.5-0.0104 17.3-0.00713 6.71-0.00864 13.4-0.00979 20.1-0.00219 12-0.00885 23.9-0.0183 35.9-0.00917 11.6-0.0163 23.3-0.0205 34.9-2.63e-4 0.717-5.25e-4 1.43-7.96e-4 2.17-0.0013 3.59-0.00257 7.19-0.00381 10.8-0.0104 29.8-0.0281 59.7-0.0503 89.5-7.37 0.0253-14.7 0.0428-22.1 0.0549-2.51 0.00504-5.02 0.0119-7.53 0.0205-3.6 0.0121-7.2 0.0178-10.8 0.0222-1.69 0.00774-1.69 0.00774-3.42 0.0156-1.04 7.55e-5 -2.08 1.51e-4 -3.15 2.29e-4 -0.919 0.00222-1.84 0.00444-2.79 0.00673-2.21-0.12-2.21-0.12-4.21-1.12-0.0456-30.3-0.081-60.6-0.102-90.9-0.0025-3.57-0.00509-7.14-0.00773-10.7-7.87e-4 -1.07-7.87e-4 -1.07-0.00159-2.16-0.00871-11.5-0.0245-23.1-0.0429-34.6-0.0187-11.8-0.0298-23.6-0.0339-35.5-0.0025-6.64-0.00879-13.3-0.0233-19.9-0.0135-6.25-0.0178-12.5-0.0148-18.7-5.53e-4 -2.3-0.00456-4.6-0.0122-6.9-0.00988-3.13-0.00758-6.25-0.0021-9.38-0.00583-0.92-0.0117-1.84-0.0177-2.79 0.0394-8.23 0.0394-8.23 4.43-8.73z" fill="#FCFDFF"/>
<path transform="translate(412 534)" d="m0 0c1.35 0.00214 1.35 0.00214 2.72 0.00432 1.02-0.00308 2.04-0.00615 3.08-0.00932 1.65 0.0108 1.65 0.0108 3.34 0.0218 1.13 4.58e-4 2.25 9.16e-4 3.41 0.00139 2.38 0.00302 4.77 0.0109 7.15 0.0233 3.67 0.0183 7.33 0.0205 11 0.0203 2.31 0.00492 4.62 0.0107 6.94 0.0176 1.1 0.00111 2.21 0.00223 3.35 0.00337 1.52 0.00957 1.52 0.00957 3.07 0.0193 0.898 0.00381 1.8 0.00762 2.72 0.0116 2.04 0.134 2.04 0.134 3.04 1.13 0.098 3.07 0.13 6.12 0.12 9.19 8.54e-4 0.977 0.00171 1.95 0.00259 2.96 0.00166 3.3-0.00387 6.6-0.00932 9.9-2.82e-4 2.35-1.24e-4 4.71 4.43e-4 7.06 2.88e-4 6.42-0.00561 12.8-0.0126 19.2-0.00607 6.02-0.00662 12-0.00765 18.1-0.00219 11.9-0.00885 23.8-0.0183 35.8-0.00917 11.6-0.0163 23.2-0.0205 34.8-2.63e-4 0.714-5.25e-4 1.43-7.96e-4 2.16-0.0013 3.58-0.00257 7.16-0.00381 10.7-0.0104 29.7-0.0281 59.4-0.0503 89.2-2.91 0.971-4.77 1.13-7.81 1.13-1.46 0.00473-1.46 0.00473-2.95 0.00955-1.05-0.00202-2.1-0.00405-3.18-0.00613-1.08 9.57e-4 -2.16 0.00191-3.27 0.0029-2.28 6.81e-4 -4.56-0.00117-6.84-0.00534-3.5-0.00535-7-4.86e-5 -10.5 0.00635-2.21-6.61e-4 -4.43-0.00194-6.64-0.00391-1.05 0.00202-2.1 0.00405-3.19 0.00613-0.971-0.00315-1.94-0.0063-2.94-0.00955-0.857-7.96e-4 -1.71-0.00159-2.6-0.00241-2.08-0.127-2.08-0.127-4.08-1.13-0.0456-30.3-0.081-60.6-0.102-90.9-0.0025-3.57-0.00509-7.14-0.00773-10.7-7.87e-4 -1.07-7.87e-4 -1.07-0.00159-2.16-0.00871-11.5-0.0245-23.1-0.0429-34.6-0.0187-11.8-0.0298-23.6-0.0339-35.5-0.0025-6.64-0.00879-13.3-0.0233-19.9-0.0135-6.25-0.0178-12.5-0.0148-18.7-5.53e-4 -2.3-0.00456-4.6-0.0122-6.9-0.00988-3.13-0.00758-6.25-0.0021-9.38-0.00583-0.92-0.0117-1.84-0.0177-2.79 0.0394-8.23 0.0394-8.23 4.43-8.73z" fill="#FCFDFF"/>
</svg>
