<?xml version="1.0" encoding="UTF-8"?>
<svg version="1.1" viewBox="0 0 1592 1600" width="1280" height="1280" xmlns="http://www.w3.org/2000/svg">
<path transform="translate(767 150)" d="m0 0c58.7-0.766 117 4.21 174 18 1.15 0.27 2.29 0.539 3.47 0.817 35.1 8.33 69.4 19.8 103 34.2 1.43 0.616 1.43 0.616 2.89 1.24 5.75 2.49 11.4 5.1 17.1 7.76 0.922 0.425 1.84 0.851 2.79 1.29 45.7 21.1 88.9 48.1 128 79.7 0.979 0.781 0.979 0.781 1.98 1.58 7.76 6.2 15.4 12.5 22.7 19.2 2.07 1.92 4.17 3.78 6.31 5.63 1.36 1.19 2.71 2.37 4.06 3.56 0.776 0.682 1.55 1.36 2.35 2.07 7.39 6.63 14.4 13.6 21.5 20.6 0.75 0.746 0.75 0.746 1.51 1.51 6.67 6.64 13.2 13.3 19 20.7 1.53 2.15 1.53 2.15 3.69 3.06 0.433 0.733 0.866 1.47 1.31 2.22 1.92 3.15 4.14 5.55 6.69 8.21 5.55 5.93 10.6 12.2 15.5 18.6 1.6 2.07 3.23 4.12 4.86 6.17 7.81 9.86 15.1 20 22.1 30.4 1.52 2.27 3.05 4.53 4.58 6.8 12.2 18 23.3 36.5 33.5 55.7 1.4 2.64 2.81 5.28 4.22 7.91 29.3 54.9 49.1 114 61.8 175 0.394 1.87 0.791 3.75 1.19 5.62 3.07 14.7 5.13 29.4 6.93 44.3 0.103 0.836 0.206 1.67 0.312 2.53 3.04 25 4.34 50 4.26 75.2-0.00717 2.67-0.00911 5.33 0 8 0.059 18.6-0.62 36.9-2.26 55.4-0.0733 0.837-0.147 1.67-0.222 2.54-0.424 4.75-0.921 9.48-1.47 14.2-0.0811 0.706-0.162 1.41-0.246 2.14-9.04 77.5-32.2 154-68 223-0.761 1.48-1.52 2.96-2.27 4.44-9.58 18.8-20.2 37-31.8 54.6-1.03 1.57-1.03 1.57-2.08 3.16-4.2 6.35-8.51 12.6-12.9 18.8-0.369 0.523-0.737 1.05-1.12 1.59-10.9 15.5-22.5 30.2-34.8 44.6-2.84 3.34-5.6 6.72-8.33 10.1-9.14 11.2-19.4 21.5-29.8 31.7-2.84 2.83-5.67 5.67-8.49 8.52-6.33 6.38-12.6 12.7-19.5 18.5-1.07 0.919-2.14 1.84-3.2 2.76-31.8 27.5-66.2 52.5-103 73.2-0.672 0.384-1.34 0.768-2.04 1.16-30.3 17.3-61.5 32.1-94 44.8-0.832 0.33-1.66 0.659-2.52 0.999-84.6 33.2-176 44-294 40-1.13-0.11-1.13-0.11-2.28-0.221-26.5-2.58-52.5-6.72-78.5-12.3-2.11-0.45-4.21-0.891-6.32-1.33-85.5-18-168-56.3-239-107-0.868-0.622-1.74-1.24-2.63-1.88-9.16-6.58-18.1-13.3-26.6-20.7-2.39-2.05-4.82-3.98-7.34-5.88-4.62-3.53-8.83-7.47-13.1-11.5-2.66-2.46-5.47-4.7-8.31-6.95-6.89-5.6-13.1-11.8-19.3-18.1-1.99-2.01-3.99-4.01-6-6.02-11.2-11.2-11.2-11.2-16.3-17.3-2.34-2.74-4.82-5.34-7.28-7.96-4.48-4.82-8.74-9.76-12.9-14.9-2.01-2.48-4.06-4.9-6.14-7.32-7.06-8.22-13.6-16.8-20.1-25.5-0.529-0.708-1.06-1.42-1.6-2.14-16.3-21.9-30.6-45-44.1-68.6-1.16-2.01-2.32-4.01-3.49-6.01-3.37-5.79-6.57-11.6-9.55-17.6-0.345-0.691-0.689-1.38-1.04-2.1-34.3-69.1-56.8-143-70.4-329 0.0442-0.966 0.0884-1.93 0.134-2.93 0.765-16.4 1.91-32.6 4.05-48.9 0.163-1.25 0.327-2.49 0.495-3.77 11.9-88.3 40.4-173 85.5-250 0.665-1.13 1.33-2.27 2.01-3.44 5.22-8.84 10.7-17.4 16.5-26 1.4-2.09 2.79-4.18 4.18-6.28 17.5-26.3 37.1-51 58.3-74.3 1.38-1.54 2.75-3.08 4.12-4.62 9.2-10.2 18.6-20.2 28.3-29.9 0.638-0.642 1.28-1.28 1.93-1.95 3.81-3.8 7.74-7.4 11.8-10.9 2.25-1.94 4.44-3.94 6.63-5.94 5.25-4.73 10.7-9.18 16.2-13.6 1.23-1.01 2.46-2.02 3.69-3.04 27.4-22.5 56.6-42.4 87.3-60 0.673-0.385 1.35-0.771 2.04-1.17 76.8-43.8 163-73.2 310-86.9z" fill="#000100"/>
<path transform="translate(785 66.8)" d="m0 0c1.01 6.04e-4 2.02 0.00121 3.07 0.00183 18.8 0.0301 37.5 0.648 56.2 2.19 0.775 0.0632 1.55 0.126 2.35 0.191 57.8 4.76 115 15.8 170 33.8 2.27 0.727 4.54 1.45 6.81 2.18 75.4 24.4 147 62.4 210 110 1.74 1.33 3.48 2.64 5.23 3.96 6.67 5.05 13.1 10.3 19.5 15.8 2.85 2.44 5.76 4.8 8.68 7.15 5.5 4.48 10.7 9.23 15.9 14.1 1.54 1.43 3.08 2.85 4.63 4.28 6.12 5.63 12.2 11.3 18.3 17 0.654 0.61 1.31 1.22 1.98 1.85 5.49 5.14 11 10.3 15.8 16 3.06 3.56 6.34 6.84 9.69 10.1 4.68 4.6 8.9 9.41 13 14.6 2.09 2.57 4.27 5.01 6.51 7.45 3.98 4.37 7.64 8.93 11.3 13.6 2.98 3.84 6.01 7.61 9.1 11.4 27.8 33.8 51.4 71.9 71.8 111 1.28 2.4 2.59 4.78 3.91 7.16 28.6 52 49.2 111 62.5 169 0.247 1.05 0.494 2.11 0.749 3.19 3.77 16.2 6.96 32.4 9.73 48.8 0.44 2.59 0.894 5.18 1.35 7.77 9.97 57.7 11.8 119 6.16 177-0.131 1.43-0.261 2.85-0.391 4.28-7.5 81.4-28.4 161-83.2 281-1.47 2.74-2.91 5.49-4.36 8.24-12 22.6-25.6 44.2-40 65.4-0.575 0.843-1.15 1.69-1.74 2.55-8.32 12.2-17.1 23.9-26.3 35.4-0.772 0.976-1.54 1.95-2.34 2.96-1.87 2.36-3.76 4.7-5.66 7.04-0.679 0.842-1.36 1.68-2.06 2.55-9.96 12.3-20.3 24.1-31.2 35.6-1.76 1.87-3.51 3.76-5.25 5.65-20.5 22.2-20.5 22.2-31.8 31.7-2.01 1.76-3.88 3.63-5.75 5.54-3.18 3.22-6.47 6.23-9.9 9.18-2.24 1.94-4.42 3.94-6.6 5.95-6.93 6.25-14.2 12.1-21.5 17.9-0.588 0.472-1.18 0.944-1.78 1.43-26 20.8-53.5 39.8-82.2 56.6-0.693 0.409-1.39 0.818-2.1 1.24-21.3 12.6-43 24-65.5 34.2-2.94 1.35-5.86 2.72-8.78 4.11-8.98 4.26-18.1 8-27.4 11.6-0.814 0.321-1.63 0.641-2.47 0.972-17.4 6.84-35 13.1-52.8 18.8-1.57 0.509-1.57 0.509-3.17 1.03-42.1 13.4-86.1 21.5-130 27l-3.79 0.473c-8.06 0.982-16.1 1.81-24.2 2.53-1.15 0.104-2.29 0.209-3.47 0.316-39.4 3.42-80.1 3.51-120-0.316-0.702-0.0679-1.4-0.136-2.13-0.206-79.5-7.74-156-26.1-238-60.8-1.52-0.653-1.52-0.653-3.08-1.32-9.69-4.17-19.2-8.65-28.6-13.5-1.7-0.872-3.4-1.74-5.1-2.6-28.1-14.3-55.5-30-81.3-48.2-2.11-1.48-4.22-2.96-6.33-4.43-13-9.09-25.6-18.6-37.9-28.5-1.6-1.29-3.2-2.58-4.8-3.87-5.29-4.28-10.4-8.71-15.4-13.3-2.66-2.36-5.39-4.59-8.16-6.82-4-3.23-7.69-6.59-11.2-10.3-1.88-1.86-3.81-3.57-5.81-5.29-4.12-3.59-8.01-7.36-11.9-11.2-0.682-0.681-1.36-1.36-2.07-2.06-1.43-1.43-2.86-2.86-4.29-4.29-2.17-2.17-4.34-4.34-6.51-6.5-1.4-1.4-2.8-2.8-4.2-4.2-0.639-0.637-1.28-1.27-1.94-1.93-3.8-3.82-7.41-7.75-10.9-11.8-2.24-2.59-4.58-5.08-6.92-7.59-5.12-5.54-9.9-11.3-14.6-17.2-1.4-1.69-2.79-3.38-4.19-5.06-23.8-29.2-46-60.3-64.8-92.9-0.519-0.9-1.04-1.8-1.57-2.73-29.3-51.1-53.5-105-70.4-161-0.358-1.19-0.716-2.38-1.08-3.61-13.2-44.6-21.9-90.2-26.9-136-0.0846-0.765-0.169-1.53-0.256-2.32-5.41-49.3-5.27-101 0.256-151 0.0872-0.789 0.174-1.58 0.264-2.39 3.59-32.2 9.28-64 16.7-95.6l0.8-3.43c4.19-17.8 9.35-35.2 15.2-52.6l1.2-3.6c9.16-27.4 19.8-54.1 31.8-80.4 0.378-0.831 0.755-1.66 1.14-2.52 4.77-10.5 9.99-20.7 15.4-30.8 1.54-2.87 3.07-5.75 4.6-8.63 5.86-11 11.9-21.7 18.6-32.2 1.19-1.85 2.34-3.72 3.49-5.6 14.1-23 29.8-45.2 46.7-66.2 0.708-0.891 1.42-1.78 2.14-2.7 1.94-2.44 3.9-4.87 5.86-7.3 0.718-0.893 1.44-1.79 2.18-2.71 4.38-5.4 8.89-10.6 13.6-15.8 2.32-2.61 4.5-5.3 6.68-8.03 3.73-4.62 7.73-8.8 12-12.9 2-2.03 3.85-4.06 5.71-6.22 4.52-5.21 9.4-10.1 14.3-14.9l2.74-2.75c4.55-4.55 9.16-8.96 14-13.2 2.65-2.28 5.21-4.66 7.78-7.04 4.61-4.24 9.26-8.41 14-12.5 1.04-0.902 2.07-1.8 3.11-2.71 7.6-6.59 15.4-12.9 23.3-19.1 2.21-1.73 4.38-3.51 6.56-5.28 5.48-4.39 11.2-8.45 16.9-12.5 2.22-1.56 4.43-3.14 6.63-4.71 73.3-52.1 156-89.6 243-112 1.13-0.29 2.26-0.579 3.42-0.878 19-4.86 38.2-8.84 57.6-12.1 0.666-0.113 1.33-0.226 2.02-0.342 18-3.02 36-5.2 54.2-6.91 1.31-0.125 1.31-0.125 2.65-0.252 21.3-2 42.5-2.71 63.9-2.69zm-60.8 17.2c-1.37 0.125-2.73 0.25-4.1 0.375-77.3 7.17-154 26-225 57.6-1.12 0.497-2.23 0.993-3.39 1.5-11.5 5.16-23 10.5-34.2 16.3-1.77 0.908-3.54 1.81-5.31 2.71-31.8 16.1-62.1 34.6-91.1 55.5l-2.44 1.76c-9.84 7.1-19.4 14.4-28.8 22.2-2.99 2.46-6.03 4.83-9.1 7.19-7.82 6.01-15 12.6-22.1 19.4-1.86 1.75-3.76 3.44-5.69 5.1-9.62 8.33-18.7 17.1-27.8 26.1-0.892 0.887-1.78 1.77-2.7 2.69-4.44 4.45-8.73 8.95-12.8 13.7-2.57 2.97-5.28 5.8-7.98 8.66-4.67 4.99-9.12 10.1-13.4 15.4-1.99 2.47-4.04 4.88-6.1 7.28-7.06 8.22-13.6 16.8-20.1 25.5-0.491 0.654-0.983 1.31-1.49 1.98-16.4 22-31.9 45.2-45.5 69l-1.62 2.82c-13.3 23.2-25.6 46.7-36.1 71.2-1.37 3.14-2.82 6.24-4.27 9.34-2.99 6.45-5.62 13-8.13 19.7-0.464 1.23-0.927 2.46-1.41 3.72-8.87 23.7-16.9 47.8-23.5 72.2l-0.755 2.79c-22 82.3-29 168-21.2 253 0.0726 0.799 0.145 1.6 0.22 2.42 7.7 83.7 30.1 166 82.5 276 0.304 0.596 0.609 1.19 0.922 1.81 4.4 8.59 9.2 16.8 14.3 24.9 1.43 2.37 2.84 4.75 4.25 7.12 12.8 21.4 26.8 41.9 41.8 61.9 0.678 0.907 0.678 0.907 1.37 1.83 6.2 8.25 12.7 16.2 19.3 24.2 2.66 3.2 5.27 6.44 7.88 9.69 4.02 4.92 8.3 9.57 12.7 14.2 2.73 2.89 5.4 5.82 7.99 8.84 3.71 4.25 7.63 8.27 11.6 12.3 0.726 0.727 1.45 1.45 2.2 2.2 1.52 1.52 3.05 3.05 4.58 4.57 2.32 2.31 4.63 4.63 6.94 6.94 1.49 1.49 2.98 2.98 4.47 4.47 0.68 0.682 1.36 1.36 2.06 2.07 3.94 3.92 7.98 7.66 12.2 11.3 2.22 1.91 4.37 3.88 6.53 5.86 4.41 3.99 8.97 7.76 13.6 11.5 2.29 1.87 4.51 3.79 6.72 5.75 2.6 2.3 5.25 4.49 8 6.61l4.88 3.77 2.39 1.85c11.5 8.93 23.2 17.5 35.3 25.6 2.23 1.49 4.44 3 6.66 4.51 35.4 24.1 73.4 44.8 113 62 0.813 0.358 1.63 0.715 2.46 1.08 5.48 2.39 11 4.68 16.5 6.92 0.913 0.369 1.83 0.738 2.77 1.12 42.6 17.1 86.4 29.5 131 38.9 0.999 0.214 2 0.427 3.03 0.647 17.8 3.79 35.9 6.21 54 8.35 0.851 0.101 1.7 0.203 2.58 0.307 54.6 6.4 111 6 165-0.307 0.828-0.0943 1.66-0.189 2.51-0.286 45.9-5.27 91.4-15.3 135-29.7 3.11-1.02 6.23-2.01 9.34-3.01 22.6-7.26 44.5-16.2 66.2-25.9 2.67-1.19 5.35-2.36 8.03-3.54 8.93-3.93 17.6-8.09 26.2-12.8 3.27-1.76 6.57-3.39 9.91-5 10.8-5.38 21.2-11.7 31.6-17.9 0.778-0.459 1.56-0.917 2.36-1.39 22.3-13.2 44.1-27.8 64.6-43.6 0.622-0.477 1.24-0.954 1.88-1.45 4.08-3.14 8.1-6.33 12.1-9.55 0.635-0.509 1.27-1.02 1.92-1.54 7.97-6.4 15.8-12.9 23.6-19.6 2.25-1.95 4.48-3.85 6.91-5.58 0.531-0.425 1.06-0.851 1.61-1.29v-2c0.583-0.254 1.17-0.508 1.77-0.77 2.48-1.36 4.04-2.87 5.98-4.92 2.48-2.6 5.03-5.01 7.76-7.34 5.22-4.53 10.1-9.42 15-14.3 1.59-1.59 3.18-3.18 4.77-4.76 4.9-4.9 9.71-9.84 14.2-15.1 2.54-2.95 5.24-5.76 7.91-8.59 4.59-4.91 8.99-9.91 13.2-15.2 1.87-2.33 3.76-4.63 5.67-6.92 7.9-9.48 15.5-19.1 22.8-29.1 0.503-0.681 1.01-1.36 1.52-2.06 25.4-34.4 47.3-70.8 66.5-109 0.51-1.01 1.02-2.02 1.55-3.06 37.9-75.6 60.7-159 70.2-243 0.225-1.97 0.457-3.93 0.689-5.9 5.94-51.7 4.86-106-1.46-158-0.16-1.32-0.16-1.32-0.323-2.67-9-73.7-29.2-146-59.7-213-0.476-1.06-0.952-2.12-1.44-3.21-6.39-14.2-13.1-28.2-20.6-41.8-0.539-0.984-1.08-1.97-1.63-2.98-7.1-12.9-14.4-25.6-22.4-38-1.17-1.85-2.33-3.71-3.5-5.56-7.14-11.2-14.6-22.1-22.3-32.8-1.07-1.48-2.14-2.97-3.21-4.46-9.73-13.5-20-26.6-30.8-39.2-3.02-3.55-5.97-7.14-8.9-10.8-3.02-3.71-6.14-7.13-9.57-10.5-3.07-3.06-5.85-6.38-8.68-9.67-3.87-4.49-7.76-8.86-12-13-0.669-0.679-1.34-1.36-2.03-2.06-3.5-3.54-6.99-7.02-10.8-10.3-3.58-3.06-6.88-6.34-10.2-9.69-4.51-4.55-9.11-8.86-14-13-1.56-1.35-3.12-2.7-4.68-4.05-15-12.9-30.4-25.2-46.3-37-0.807-0.593-1.61-1.19-2.45-1.8-46.4-34-96.8-62-150-84.4-1.7-0.72-3.4-1.44-5.1-2.17-63.9-27-134-43.9-203-50.6-0.763-0.0741-1.53-0.148-2.31-0.225-43.9-4.18-88.8-4.98-133-0.775z" fill="#000100"/>
<path transform="translate(843 513)" d="m0 0c1.11-0.00333 2.22-0.00666 3.37-0.0101 2.33-0.00503 4.66-0.00741 6.99-0.00725 3.57-0.00221 7.14-0.0205 10.7-0.0393 2.27-0.00293 4.54-0.00492 6.81-0.00586 1.07-0.00719 2.14-0.0144 3.24-0.0218 0.989 0.00308 1.98 0.00615 3 0.00932 0.869-0.00143 1.74-0.00285 2.63-0.00432 2.23 0.247 2.23 0.247 5.23 2.25 0.374 1.81 0.374 1.81 0.373 4.06 0.00674 0.857 0.0135 1.71 0.0204 2.6-0.00788 0.949-0.0158 1.9-0.0239 2.88 0.00519 1.51 0.00519 1.51 0.0105 3.05 0.00801 3.41-0.00558 6.83-0.0189 10.2 0.00131 2.46 0.00393 4.91 0.00777 7.37 0.00533 5.36 0.00127 10.7-0.0109 16.1-0.0181 7.97-0.019 15.9-0.0164 23.9 0.00395 13.4-0.0061 26.8-0.0241 40.2-0.0177 13.3-0.0293 26.6-0.0326 39.8-2.06e-4 0.825-4.12e-4 1.65-6.25e-4 2.5-0.00101 4.19-0.00192 8.38-0.00278 12.6-0.00631 29.7-0.0265 59.4-0.0549 89.1-0.0275 28.8-0.0488 57.7-0.0615 86.5-3.95e-4 0.889-7.89e-4 1.78-0.0012 2.69-0.00396 8.92-0.00778 17.8-0.0115 26.8-0.00761 18.2-0.0161 36.4-0.0251 54.5-6.18e-4 1.25-6.18e-4 1.25-0.00125 2.53-0.0276 55.9-0.0752 112-0.126 168-8.29 0.177-16.6 0.343-24.9 0.495-3.85 0.0709-7.7 0.146-11.6 0.229-3.72 0.0803-7.43 0.151-11.1 0.214-1.42 0.0259-2.84 0.0555-4.25 0.0887-1.98 0.0458-3.97 0.0777-5.95 0.109-1.13 0.0222-2.26 0.0444-3.43 0.0673-2.79-0.203-2.79-0.203-5.79-2.2-0.375-1.81-0.375-1.81-0.376-4.04-0.00751-0.852-0.015-1.7-0.0228-2.58 0.00702-0.944 0.014-1.89 0.0213-2.86-0.00436-1-0.00872-2-0.0132-3.03-0.011-3.39-4.89e-4 -6.79 0.00979-10.2-0.00345-2.44-0.00821-4.88-0.0142-7.32-0.00996-5.33-0.0105-10.7-0.00286-16 0.0113-7.92 0.00556-15.8-0.00362-23.8-0.0158-14.1-0.0144-28.3-0.00576-42.4 0.00754-12.4 0.00952-24.8 0.00593-37.1-2.29e-4 -0.82-4.58e-4 -1.64-6.94e-4 -2.49-9.34e-4 -3.33-0.00189-6.66-0.00288-9.99-0.00918-31.3-8.44e-4 -62.5 0.0153-93.8 0.0142-27.8 0.013-55.6-0.00138-83.4-0.0161-31.2-0.0224-62.4-0.0132-93.6 9.62e-4 -3.32 0.0019-6.65 0.00283-9.97 2.37e-4 -0.818 4.74e-4 -1.64 7.19e-4 -2.48 0.00342-12.4-5.87e-4 -24.8-0.00816-37.1-0.00856-14.1-0.00647-28.1 0.00984-42.2 0.00883-7.88 0.00935-15.8-0.00194-23.6-0.00748-5.87 5.86e-4 -11.7 0.0149-17.6 0.00337-2.38 0.0016-4.77-0.00563-7.15-0.00903-3.22 1.38e-4 -6.45 0.0142-9.67-0.00702-0.941-0.014-1.88-0.0213-2.85 0.00751-0.855 0.015-1.71 0.0228-2.59 2.03e-4 -0.738 4.07e-4 -1.48 6.16e-4 -2.24 0.484-2.49 1.41-3.38 3.38-4.93 2.06-0.506 2.06-0.506 4.44-0.677 0.891-0.0643 1.78-0.129 2.7-0.195 4.97-0.222 9.92-0.291 14.9-0.296z" fill="#FDFDFD"/>
<path transform="translate(697 513)" d="m0 0c0.689 0.0128 1.38 0.0256 2.09 0.0388 1.54 0.03 3.07 0.0669 4.61 0.109 2.68 0.0707 5.35 0.116 8.03 0.156 4.96 0.0769 9.91 0.175 14.9 0.283 3.11 0.0662 6.21 0.125 9.32 0.184 1.97 0.0419 3.95 0.0842 5.92 0.127 0.929 0.0167 1.86 0.0334 2.82 0.0506 6.45 0.151 6.45 0.151 7.56 1.27 0.0992 3.15 0.132 6.27 0.123 9.42 0.00115 1.01 0.00231 2.01 0.0035 3.05 0.00268 3.42-0.00186 6.83-0.00629 10.2 4.36e-4 2.46 0.00131 4.91 0.00259 7.37 0.00178 5.36 4.2e-4 10.7-0.00364 16.1-0.00602 7.97-0.00634 15.9-0.00546 23.9 0.00132 13.4-0.00204 26.8-0.00802 40.2-0.00591 13.3-0.00976 26.6-0.0109 39.8-6.87e-5 0.825-1.37e-4 1.65-2.08e-4 2.5-3.38e-4 4.19-6.4e-4 8.38-9.27e-4 12.6-0.0021 29.7-0.00884 59.4-0.0183 89.1-0.00918 28.9-0.0163 57.7-0.0205 86.6-1.32e-4 0.889-2.63e-4 1.78-3.99e-4 2.69-0.00132 8.93-0.00259 17.9-0.00384 26.8-0.00254 18.2-0.00536 36.4-0.00835 54.6-2.06e-4 1.25-2.06e-4 1.25-4.16e-4 2.53-0.00921 55.9-0.0251 112-0.0419 168-8.01 0.177-16 0.343-24 0.495-3.72 0.0708-7.44 0.145-11.2 0.229-3.59 0.0804-7.18 0.151-10.8 0.214-1.37 0.0259-2.74 0.0554-4.11 0.0887-1.92 0.046-3.84 0.0778-5.76 0.109-1.09 0.0222-2.19 0.0444-3.31 0.0673-2.86-0.205-4.49-0.561-6.83-2.2-0.605-2.68-0.605-2.68-0.742-6.21-0.0286-0.659-0.0572-1.32-0.0867-2-0.0857-2.26-0.134-4.53-0.171-6.79-0.0139-0.808-0.0279-1.62-0.0422-2.45-0.0972-6.73-0.0922-13.5-0.0848-20.2-0.00115-2.28-0.00274-4.55-0.00473-6.83-0.00416-6.22-0.00212-12.4 9.86e-4 -18.7 0.00204-6.03-6.38e-4 -12.1-0.00315-18.1-0.00525-13.1-0.00481-26.2-0.00192-39.3 0.00252-11.5 0.00317-22.9 0.00198-34.4-7.64e-5 -0.762-1.53e-4 -1.52-2.31e-4 -2.31-3.11e-4 -3.09-6.3e-4 -6.19-9.6e-4 -9.28-0.00306-29-2.9e-4 -58 0.0051-87 0.00474-25.7 0.00432-51.4-4.61e-4 -77.2-0.00537-28.9-0.00747-57.9-0.00439-86.8 3.21e-4 -3.09 6.34e-4 -6.18 9.43e-4 -9.27 7.91e-5 -0.761 1.58e-4 -1.52 2.4e-4 -2.31 0.00113-11.4-1.85e-4 -22.9-0.00272-34.3-0.00287-13-0.00212-26.1 0.00328-39.1 0.00266-6.64 0.00368-13.3 3.51e-4 -19.9-0.00301-6.1-0.00129-12.2 0.00398-18.3 0.0011-2.19 5.79e-4 -4.38-0.00188-6.57-0.00714-6.9 0.0348-13.8 0.131-20.7 0.0131-1.12 0.0262-2.25 0.0397-3.41 0.0499-3.47 0.13-6.93 0.218-10.4 0.0136-1.08 0.0272-2.15 0.0412-3.26 0.0317-0.995 0.0633-1.99 0.0959-3.01 0.0201-0.88 0.0403-1.76 0.061-2.67 0.544-2.26 0.544-2.26 2.39-4.04 3.07-1.73 5.43-1.51 8.94-1.43z" fill="#FDFDFD"/>
<path transform="translate(960 580)" d="m0 0c1.86-0.0045 1.86-0.0045 3.75-0.00909 1.35 0.012 2.7 0.0245 4.05 0.0374 1.38 0.00306 2.77 0.00493 4.15 0.00568 2.9 0.0046 5.79 0.019 8.69 0.0412 3.72 0.0283 7.44 0.0392 11.2 0.0437 2.85 0.00415 5.71 0.014 8.56 0.0259 1.37 0.00571 2.74 0.0105 4.12 0.0143 1.91 0.00684 3.83 0.0214 5.74 0.0363 1.09 0.00683 2.18 0.0137 3.3 0.0207 2.45 0.14 2.45 0.14 3.45 1.14 0.0988 2.46 0.132 4.89 0.123 7.35 0.00115 0.783 0.00231 1.57 0.0035 2.37 0.00267 2.66-0.00186 5.31-0.00629 7.97 4.36e-4 1.91 0.00131 3.82 0.00259 5.73 0.00225 5.28-0.00178 10.6-0.00678 15.8-0.0043 5.68-0.00286 11.4-0.0021 17 5.26e-4 9.85-0.00262 19.7-0.00824 29.6-0.00811 14.2-0.0107 28.5-0.012 42.7-0.00219 23.1-0.00884 46.2-0.0183 69.3-0.00918 22.4-0.0163 44.9-0.0205 67.3-1.32e-4 0.692-2.63e-4 1.38-3.99e-4 2.1-0.00132 6.95-0.00259 13.9-0.00384 20.8-0.0104 58.3-0.0281 117-0.0507 175-8.16 0.177-16.3 0.343-24.5 0.495-3.79 0.0709-7.58 0.146-11.4 0.229-3.66 0.0803-7.31 0.151-11 0.214-1.4 0.0259-2.79 0.0555-4.19 0.0887-1.95 0.0458-3.91 0.0777-5.86 0.109-1.11 0.0222-2.23 0.0444-3.37 0.0673-2.75-0.203-2.75-0.203-5.75-2.2-0.301-2.55-0.402-4.87-0.378-7.42-0.00436-0.778-0.00872-1.56-0.0132-2.36-0.011-2.63-4.94e-4 -5.27 0.00979-7.9-0.00345-1.9-0.00822-3.79-0.0142-5.69-0.0126-5.23-0.0063-10.5 0.00296-15.7 0.00676-5.64-0.00367-11.3-0.0119-16.9-0.0134-11.1-0.0104-22.1-0.00176-33.2 0.00676-8.98 0.0077-18 0.00443-26.9-4.6e-4 -1.28-9.19e-4 -2.55-0.00139-3.87-9.59e-4 -2.59-0.00193-5.18-0.00292-7.77-0.00832-23.6 3.24e-4 -47.3 0.016-70.9 0.0142-21.6 0.013-43.2-0.00138-64.8-0.0161-24.2-0.0224-48.5-0.0132-72.7 9.56e-4 -2.58 0.0019-5.16 0.00283-7.75 4.63e-4 -1.27 9.26e-4 -2.54 0.0014-3.85 0.00259-8.97-0.00179-17.9-0.00884-26.9-0.0084-10.9-0.00617-21.9 0.00984-32.8 0.00791-5.58 0.0109-11.2 0.00105-16.7-0.0089-5.1-0.0041-10.2 0.0119-15.3 0.00337-1.85 0.00161-3.7-0.00563-5.56-0.00904-2.51 1.49e-4 -5.01 0.0142-7.51-0.00702-0.73-0.014-1.46-0.0213-2.21 0.0327-2.9 0.0707-4.86 1.75-7.29 2.53-1.62 4.68-1.42 7.66-1.41z" fill="#FDFDFD"/>
<path transform="translate(558 580)" d="m0 0c1.11 0.00143 2.22 0.00285 3.37 0.00432 1.26-0.00308 2.52-0.00615 3.81-0.00932 1.38 0.0069 2.76 0.0142 4.14 0.0218 1.41 0.00119 2.81 0.00164 4.22 0.00139 2.95 0.00157 5.9 0.00986 8.85 0.0233 3.79 0.017 7.58 0.0208 11.4 0.0201 2.91 2.71e-4 5.81 0.00575 8.72 0.013 1.4 0.00319 2.8 0.00516 4.19 0.00589 1.95 0.00216 3.9 0.0117 5.85 0.0216 1.11 0.00381 2.22 0.00762 3.37 0.0116 2.5 0.134 2.5 0.134 3.5 1.13 0.0988 2.46 0.132 4.89 0.123 7.35 0.00115 0.783 0.00231 1.57 0.0035 2.37 0.00267 2.66-0.00186 5.31-0.00629 7.97 4.36e-4 1.91 0.00131 3.82 0.00259 5.73 0.00225 5.28-0.00178 10.6-0.00678 15.8-0.0043 5.68-0.00286 11.4-0.0021 17 5.26e-4 9.85-0.00262 19.7-0.00824 29.6-0.00811 14.2-0.0107 28.5-0.012 42.7-0.00219 23.1-0.00884 46.2-0.0183 69.3-0.00918 22.4-0.0163 44.9-0.0205 67.3-1.32e-4 0.692-2.63e-4 1.38-3.99e-4 2.1-0.00132 6.95-0.00259 13.9-0.00384 20.8-0.0104 58.3-0.0281 117-0.0507 175-8.16 0.177-16.3 0.343-24.5 0.495-3.79 0.0709-7.58 0.146-11.4 0.229-3.66 0.0803-7.31 0.151-11 0.214-1.4 0.0259-2.79 0.0555-4.19 0.0887-1.95 0.0458-3.91 0.0777-5.86 0.109-1.11 0.0222-2.23 0.0444-3.37 0.0673-2.75-0.203-2.75-0.203-5.75-2.2-0.3-2.56-0.4-4.88-0.375-7.44-0.00406-0.78-0.00812-1.56-0.0123-2.36-0.01-2.64 0.00153-5.28 0.0128-7.92-0.00274-1.9-0.00679-3.8-0.012-5.71-0.0106-5.25-0.00242-10.5 0.00875-15.7 0.00881-5.65 4.08e-4 -11.3-0.00586-17-0.00951-11.1-0.00287-22.2 0.00926-33.2 0.0136-12.9 0.012-25.8 0.00987-38.7-0.00329-23.7 0.00964-47.4 0.0298-71.1 0.0184-21.6 0.0242-43.3 0.0187-64.9-3.46e-4 -1.39-6.93e-4 -2.78-0.00104-4.17-1.71e-4 -0.687-3.42e-4 -1.37-5.18e-4 -2.08-8.53e-4 -3.46-0.00168-6.91-0.00247-10.4-1.57e-4 -0.682-3.14e-4 -1.36-4.76e-4 -2.07-0.00399-18.1 0.00153-36.1 0.00999-54.2 0.00121-2.59 0.00241-5.18 0.00362-7.76 6.04e-4 -1.27 0.00121-2.55 0.00183-3.86 0.00389-8.99 0.00348-18 0.00159-27-0.00212-11 0.00307-21.9 0.0176-32.9 0.00727-5.59 0.0113-11.2 0.00676-16.8-0.00405-5.11 0.00102-10.2 0.0136-15.3 0.00295-1.86 0.00247-3.71-0.00164-5.57-0.00505-2.51 0.00201-5.02 0.0123-7.53-0.0044-0.734-0.00879-1.47-0.0133-2.22 0.0555-7.01 0.0555-7.01 4.89-7.46z" fill="#FDFDFD"/>
<path transform="translate(429 663)" d="m0 0c1.86 3.4e-4 1.86 3.4e-4 3.76 6.87e-4 1.35 0.0153 2.71 0.031 4.06 0.0469 1.39 0.0056 2.77 0.00987 4.16 0.0129 3.64 0.0114 7.29 0.0409 10.9 0.0741 3.72 0.0307 7.44 0.0444 11.2 0.0595 7.3 0.0322 14.6 0.0834 21.9 0.146 2.43 5.68 2.26 11 2.2 17.1-0.00222 1.1-0.00444 2.2-0.00672 3.34-0.00968 3.64-0.0336 7.28-0.0576 10.9-0.00965 2.58-0.0184 5.15-0.0263 7.73-0.0181 5.35-0.0418 10.7-0.0711 16-0.0403 7.37-0.0663 14.7-0.088 22.1-0.0402 13-0.0962 26-0.155 39-0.0289 6.43-0.0564 12.9-0.0841 19.3-0.0463 10.7-0.0934 21.4-0.141 32.2-0.0491 11-0.0976 22-0.146 33-0.00448 1.03-0.00448 1.03-0.00905 2.08-0.015 3.45-0.03 6.9-0.045 10.3-0.123 28.3-0.247 56.6-0.373 84.8-8.46 0.0231-16.9 0.0409-25.4 0.0518-3.93 0.00523-7.85 0.0123-11.8 0.0236-3.79 0.0108-7.57 0.0168-11.4 0.0194-1.45 0.00185-2.9 0.00547-4.34 0.0109-2.02 0.00721-4.04 0.00768-6.06 0.0078-1.73 0.00333-1.73 0.00333-3.49 0.00673-2.59-0.12-2.59-0.12-3.59-1.12-0.0997-1.57-0.129-3.14-0.131-4.71-0.00384-1.02-0.00768-2.05-0.0116-3.1 8.66e-4 -1.14 0.00173-2.28 0.00263-3.45-0.00297-1.2-0.00594-2.4-9e-3 -3.63-0.0072-3.34-0.00986-6.69-0.0106-10-0.00185-3.6-0.00939-7.2-0.0161-10.8-0.0136-7.88-0.0196-15.8-0.024-23.6-0.00276-4.92-7e-3 -9.83-0.0115-14.7-0.0122-13.6-0.0225-27.2-0.0259-40.8-2.2e-4 -0.871-4.39e-4 -1.74-6.65e-4 -2.64-2.18e-4 -0.873-4.37e-4 -1.75-6.61e-4 -2.65-4.43e-4 -1.77-8.9e-4 -3.54-0.00134-5.31-2.21e-4 -0.878-4.43e-4 -1.76-6.71e-4 -2.66-0.00395-14.2-0.0214-28.5-0.0447-42.7-0.0237-14.6-0.0362-29.2-0.0373-43.8-9.18e-4 -8.2-0.00671-16.4-0.0248-24.6-0.0154-6.98-0.0205-14-0.0123-20.9 0.00392-3.56 0.00292-7.13-0.0111-10.7-0.015-3.86-0.00691-7.72 0.00358-11.6-0.00806-1.13-0.0161-2.27-0.0244-3.44 0.00659-1.03 0.0132-2.06 0.02-3.12-5.97e-4 -0.891-0.00119-1.78-0.00181-2.7 0.907-5.47 4.52-5.63 9.41-5.6z" fill="#FDFDFD"/>
<path transform="translate(1089 663)" d="m0 0c1.11 0.00143 2.22 0.00285 3.37 0.00432 1.26-0.00308 2.52-0.00615 3.81-0.00932 1.38 0.0069 2.76 0.0142 4.14 0.0218 1.41 0.00119 2.81 0.00164 4.22 0.00139 2.95 0.00157 5.9 0.00986 8.85 0.0233 3.79 0.017 7.58 0.0208 11.4 0.0201 2.91 2.71e-4 5.81 0.00575 8.72 0.013 1.4 0.00319 2.8 0.00516 4.19 0.00589 1.95 0.00216 3.9 0.0117 5.85 0.0216 1.11 0.00381 2.22 0.00762 3.37 0.0116 2.5 0.134 2.5 0.134 3.5 1.13 0.097 1.58 0.124 3.17 0.123 4.76 0.00199 1.04 0.00398 2.07 0.00603 3.14-0.00291 1.15-0.00583 2.31-0.00883 3.49 8.54e-4 1.21 0.00171 2.43 0.00259 3.68 0.00137 3.38-0.00178 6.77-0.00678 10.2-0.0043 3.64-0.00286 7.29-0.0021 10.9 5.25e-4 6.32-0.00262 12.6-0.00824 19-0.00811 9.13-0.0107 18.3-0.012 27.4-0.00219 14.8-0.00885 29.6-0.0183 44.5-0.00917 14.4-0.0163 28.8-0.0205 43.2-2.63e-4 0.887-5.25e-4 1.77-7.96e-4 2.69-0.0013 4.45-0.00257 8.9-0.00381 13.3-0.0104 36.9-0.028 73.9-0.0503 111-8.46 0.0231-16.9 0.0409-25.4 0.0518-3.93 0.00523-7.85 0.0123-11.8 0.0236-3.79 0.0108-7.57 0.0168-11.4 0.0194-1.45 0.00185-2.9 0.00547-4.34 0.0109-2.02 0.00721-4.04 0.00768-6.06 0.0078-1.73 0.00333-1.73 0.00333-3.49 0.00673-2.59-0.12-2.59-0.12-3.59-1.12-0.0988-1.57-0.127-3.15-0.129-4.72-0.00322-1.03-0.00645-2.06-0.00977-3.12 0.00155-1.14 0.0031-2.29 0.00469-3.47-0.00227-1.2-0.00453-2.41-0.00687-3.65-0.00526-3.36-0.00598-6.71-0.00481-10.1 2.03e-4 -3.61-0.00531-7.23-0.0101-10.8-0.00832-7.09-0.0111-14.2-0.0116-21.3-4.74e-4 -5.76-0.00253-11.5-0.0057-17.3-0.00881-16.3-0.0134-32.6-0.0127-48.9 4e-5 -0.88 7.99e-5 -1.76 1.21e-4 -2.67 4.09e-5 -0.881 8.18e-5 -1.76 1.24e-4 -2.67 4.07e-4 -14.3-0.00917-28.6-0.0233-42.9-0.0143-14.7-0.0213-29.3-0.0204-44 3.33e-4 -8.23-0.00244-16.5-0.0132-24.7-0.00908-7.01-0.0113-14-0.00449-21 0.00328-3.58 0.00327-7.16-0.00535-10.7-0.00924-3.87-0.00312-7.75 0.00463-11.6-0.00514-1.14-0.0103-2.28-0.0156-3.46 0.0046-1.03 0.0092-2.06 0.0139-3.12-2.17e-4 -0.895-4.35e-4 -1.79-6.59e-4 -2.71 0.395-3.38 1.58-4.08 4.88-4.39z" fill="#FDFDFD"/>
</svg>
